<svg xmlns="http://www.w3.org/2000/svg" xmlns:xlink="http://www.w3.org/1999/xlink" viewBox="0 0 350 350">
  <defs>
    <radialGradient id="radial-gradient" cx="175" cy="175" r="227.91" gradientUnits="userSpaceOnUse">
      <stop offset="0" stop-color="#0272cd"/>
      <stop offset="1" stop-color="#012143"/>
    </radialGradient>
    <radialGradient id="radial-gradient-2" cx="175" cy="175" r="175" gradientUnits="userSpaceOnUse">
      <stop offset="0" stop-color="#fff"/>
      <stop offset="1" stop-color="#706f6f"/>
    </radialGradient>
  </defs>
  <title>yarn</title>
  <g style="isolation: isolate">
    <g id="Layer_1" data-name="Layer 1">
      <rect width="350" height="350" style="fill: url(#radial-gradient)"/>
    </g>
    <g id="Layer_5" data-name="Layer 5">
      <path d="M0,0V350H350V0ZM349.3,16.63H333.37V.7H349.3ZM167,183V167h16v16Zm16,.7v15.93H167V183.71Zm-16.72-.7H150.36V167h15.93Zm.7-16.71V150.37h16V166.3Zm16.72.7h15.93v16H183.71Zm0-.7V150.37h15.93V166.3Zm0-16.63V133.74h15.93v15.93Zm-.7,0H167V133.74h16Zm-16.72,0H150.36V133.74h15.93Zm0,.7V166.3H150.36V150.37ZM149.66,166.3H133.73V150.37h15.93Zm0,.7v16H133.73V167Zm0,16.71v15.93H133.73V183.71Zm.7,0h15.93v15.93H150.36Zm15.93,16.63v15.93H150.36V200.34Zm.7,0h16v15.93H167Zm16.72,0h15.93v15.93H183.71Zm0-.7V183.71h15.93v15.93Zm16.63-15.93h15.93v15.93H200.34Zm0-.7V167h15.93v16Zm0-16.71V150.37h15.93V166.3Zm0-16.63V133.74h15.93v15.93Zm0-16.63V117.11h15.93V133Zm-.7,0H183.71V117.11h15.93ZM183,133H167V117.11h16Zm-16.72,0H150.36V117.11h15.93Zm-16.63,0H133.73V117.11h15.93Zm0,.7v15.93H133.73V133.74ZM133,149.67H117.1V133.74H133Zm0,.7V166.3H117.1V150.37ZM133,167v16H117.1V167Zm0,16.71v15.93H117.1V183.71Zm0,16.63v15.93H117.1V200.34Zm.7,0h15.93v15.93H133.73ZM149.66,217V232.9H133.73V217Zm.7,0h15.93V232.9H150.36ZM167,217h16V232.9H167Zm16.72,0h15.93V232.9H183.71Zm16.63,0h15.93V232.9H200.34Zm0-.7V200.34h15.93v15.93ZM217,200.34H232.9v15.93H217Zm0-.7V183.71H232.9v15.93ZM217,183V167H232.9v16Zm0-16.71V150.37H232.9V166.3Zm0-16.63V133.74H232.9v15.93ZM217,133V117.11H232.9V133Zm0-16.63V100.48H232.9v15.93Zm-.69,0H200.34V100.48h15.93Zm-16.63,0H183.71V100.48h15.93Zm-16.63,0H167V100.48h16Zm-16.72,0H150.36V100.48h15.93Zm-16.63,0H133.73V100.48h15.93Zm-16.63,0H117.1V100.48H133Zm0,.7V133H117.1V117.11ZM116.41,133H100.47V117.11h15.94Zm0,.7v15.93H100.47V133.74Zm0,16.63V166.3H100.47V150.37Zm0,16.63v16H100.47V167Zm0,16.71v15.93H100.47V183.71Zm0,16.63v15.93H100.47V200.34Zm0,16.63V232.9H100.47V217Zm.69,0H133V232.9H117.1ZM133,233.6v15.93H117.1V233.6Zm.7,0h15.93v15.93H133.73Zm16.63,0h15.93v15.93H150.36Zm16.63,0h16v15.93H167Zm16.72,0h15.93v15.93H183.71Zm16.63,0h15.93v15.93H200.34Zm16.62,0H232.9v15.93H217Zm0-.7V217H232.9V232.9ZM233.59,217h15.94V232.9H233.59Zm0-.7V200.34h15.94v15.93Zm0-16.63V183.71h15.94v15.93Zm0-16.63V167h15.94v16Zm0-16.71V150.37h15.94V166.3Zm0-16.63V133.74h15.94v15.93Zm0-16.63V117.11h15.94V133Zm0-16.63V100.48h15.94v15.93Zm0-16.63V83.85h15.94V99.78Zm-.69,0H217V83.85H232.9Zm-16.63,0H200.34V83.85h15.93Zm-16.63,0H183.71V83.85h15.93Zm-16.63,0H167V83.85h16Zm-16.72,0H150.36V83.85h15.93Zm-16.63,0H133.73V83.85h15.93Zm-16.63,0H117.1V83.85H133Zm-16.62,0H100.47V83.85h15.94Zm0,.7v15.93H100.47V100.48ZM99.78,116.41H83.85V100.48H99.78Zm0,.7V133H83.85V117.11Zm0,16.63v15.93H83.85V133.74Zm0,16.63V166.3H83.85V150.37Zm0,16.63v16H83.85V167Zm0,16.71v15.93H83.85V183.71Zm0,16.63v15.93H83.85V200.34Zm0,16.63V232.9H83.85V217Zm0,16.63v15.93H83.85V233.6Zm.69,0h15.94v15.93H100.47Zm15.94,16.63v15.93H100.47V250.23Zm.69,0H133v15.93H117.1Zm16.63,0h15.93v15.93H133.73Zm16.63,0h15.93v15.93H150.36Zm16.63,0h16v15.93H167Zm16.72,0h15.93v15.93H183.71Zm16.63,0h15.93v15.93H200.34Zm16.62,0H232.9v15.93H217Zm16.63,0h15.94v15.93H233.59Zm0-.7V233.6h15.94v15.93Zm16.63-15.93h15.93v15.93H250.22Zm0-.7V217h15.93V232.9Zm0-16.63V200.34h15.93v15.93Zm0-16.63V183.71h15.93v15.93Zm0-16.63V167h15.93v16Zm0-16.71V150.37h15.93V166.3Zm0-16.63V133.74h15.93v15.93Zm0-16.63V117.11h15.93V133Zm0-16.63V100.48h15.93v15.93Zm0-16.63V83.85h15.93V99.78Zm0-16.63V67.22h15.93V83.15Zm-.69,0H233.59V67.22h15.94Zm-16.63,0H217V67.22H232.9Zm-16.63,0H200.34V67.22h15.93Zm-16.63,0H183.71V67.22h15.93Zm-16.63,0H167V67.22h16Zm-16.72,0H150.36V67.22h15.93Zm-16.63,0H133.73V67.22h15.93Zm-16.63,0H117.1V67.22H133Zm-16.62,0H100.47V67.22h15.94Zm-16.63,0H83.85V67.22H99.78Zm0,.7V99.78H83.85V83.85ZM83.15,99.78H67.22V83.85H83.15Zm0,.7v15.93H67.22V100.48Zm0,16.63V133H67.22V117.11Zm0,16.63v15.93H67.22V133.74Zm0,16.63V166.3H67.22V150.37Zm0,16.63v16H67.22V167Zm0,16.71v15.93H67.22V183.71Zm0,16.63v15.93H67.22V200.34Zm0,16.63V232.9H67.22V217Zm0,16.63v15.93H67.22V233.6Zm0,16.63v15.93H67.22V250.23Zm.7,0H99.78v15.93H83.85Zm15.93,16.63v15.93H83.85V266.86Zm.69,0h15.94v15.93H100.47Zm16.63,0H133v15.93H117.1Zm16.63,0h15.93v15.93H133.73Zm16.63,0h15.93v15.93H150.36Zm16.63,0h16v15.93H167Zm16.72,0h15.93v15.93H183.71Zm16.63,0h15.93v15.93H200.34Zm16.62,0H232.9v15.93H217Zm16.63,0h15.94v15.93H233.59Zm16.63,0h15.93v15.93H250.22Zm0-.7V250.23h15.93v15.93Zm16.63-15.93h15.93v15.93H266.85Zm0-.7V233.6h15.93v15.93Zm0-16.63V217h15.93V232.9Zm0-16.63V200.34h15.93v15.93Zm0-16.63V183.71h15.93v15.93Zm0-16.63V167h15.93v16Zm0-16.71V150.37h15.93V166.3Zm0-16.63V133.74h15.93v15.93Zm0-16.63V117.11h15.93V133Zm0-16.63V100.48h15.93v15.93Zm0-16.63V83.85h15.93V99.78Zm0-16.63V67.22h15.93V83.15Zm0-16.63V50.59h15.93V66.52Zm-.7,0H250.22V50.59h15.93Zm-16.62,0H233.59V50.59h15.94Zm-16.63,0H217V50.59H232.9Zm-16.63,0H200.34V50.59h15.93Zm-16.63,0H183.71V50.59h15.93Zm-16.63,0H167V50.59h16Zm-16.72,0H150.36V50.59h15.93Zm-16.63,0H133.73V50.59h15.93Zm-16.63,0H117.1V50.59H133Zm-16.62,0H100.47V50.59h15.94Zm-16.63,0H83.85V50.59H99.78Zm-16.63,0H67.22V50.59H83.15Zm0,.7V83.15H67.22V67.22ZM66.52,83.15H50.59V67.22H66.52Zm0,.7V99.78H50.59V83.85Zm0,16.63v15.93H50.59V100.48Zm0,16.63V133H50.59V117.11Zm0,16.63v15.93H50.59V133.74Zm0,16.63V166.3H50.59V150.37Zm0,16.63v16H50.59V167Zm0,16.71v15.93H50.59V183.71Zm0,16.63v15.93H50.59V200.34Zm0,16.63V232.9H50.59V217Zm0,16.63v15.93H50.59V233.6Zm0,16.63v15.93H50.59V250.23Zm0,16.63v15.93H50.59V266.86Zm.7,0H83.15v15.93H67.22Zm15.93,16.63v15.93H67.22V283.49Zm.7,0H99.78v15.93H83.85Zm16.62,0h15.94v15.93H100.47Zm16.63,0H133v15.93H117.1Zm16.63,0h15.93v15.93H133.73Zm16.63,0h15.93v15.93H150.36Zm16.63,0h16v15.93H167Zm16.72,0h15.93v15.93H183.71Zm16.63,0h15.93v15.93H200.34Zm16.62,0H232.9v15.93H217Zm16.63,0h15.94v15.93H233.59Zm16.63,0h15.93v15.93H250.22Zm16.63,0h15.93v15.93H266.85Zm0-.7V266.86h15.93v15.93Zm16.63-15.93h15.93v15.93H283.48Zm0-.7V250.23h15.93v15.93Zm0-16.63V233.6h15.93v15.93Zm0-16.63V217h15.93V232.9Zm0-16.63V200.34h15.93v15.93Zm0-16.63V183.71h15.93v15.93Zm0-16.63V167h15.93v16Zm0-16.71V150.37h15.93V166.3Zm0-16.63V133.74h15.93v15.93Zm0-16.63V117.11h15.93V133Zm0-16.63V100.48h15.93v15.93Zm0-16.63V83.85h15.93V99.78Zm0-16.63V67.22h15.93V83.15Zm0-16.63V50.59h15.93V66.52Zm0-16.63V34h15.93V49.89Zm-.7,0H266.85V34h15.93Zm-16.63,0H250.22V34h15.93Zm-16.62,0H233.59V34h15.94Zm-16.63,0H217V34H232.9Zm-16.63,0H200.34V34h15.93Zm-16.63,0H183.71V34h15.93Zm-16.63,0H167V34h16Zm-16.72,0H150.36V34h15.93Zm-16.63,0H133.73V34h15.93Zm-16.63,0H117.1V34H133Zm-16.62,0H100.47V34h15.94Zm-16.63,0H83.85V34H99.78Zm-16.63,0H67.22V34H83.15Zm-16.63,0H50.59V34H66.52Zm0,.7V66.52H50.59V50.59ZM49.89,66.52H34V50.59H49.89Zm0,.7V83.15H34V67.22Zm0,16.63V99.78H34V83.85Zm0,16.63v15.93H34V100.48Zm0,16.63V133H34V117.11Zm0,16.63v15.93H34V133.74Zm0,16.63V166.3H34V150.37Zm0,16.63v16H34V167Zm0,16.71v15.93H34V183.71Zm0,16.63v15.93H34V200.34Zm0,16.63V232.9H34V217Zm0,16.63v15.93H34V233.6Zm0,16.63v15.93H34V250.23Zm0,16.63v15.93H34V266.86Zm0,16.63v15.93H34V283.49Zm.7,0H66.52v15.93H50.59Zm15.93,16.63v15.93H50.59V300.12Zm.7,0H83.15v15.93H67.22Zm16.63,0H99.78v15.93H83.85Zm16.62,0h15.94v15.93H100.47Zm16.63,0H133v15.93H117.1Zm16.63,0h15.93v15.93H133.73Zm16.63,0h15.93v15.93H150.36Zm16.63,0h16v15.93H167Zm16.72,0h15.93v15.93H183.71Zm16.63,0h15.93v15.93H200.34Zm16.62,0H232.9v15.93H217Zm16.63,0h15.94v15.93H233.59Zm16.63,0h15.93v15.93H250.22Zm16.63,0h15.93v15.93H266.85Zm16.63,0h15.93v15.93H283.48Zm0-.7V283.49h15.93v15.93Zm16.63-15.93H316v15.93H300.11Zm0-.7V266.86H316v15.93Zm0-16.63V250.23H316v15.93Zm0-16.63V233.6H316v15.93Zm0-16.63V217H316V232.9Zm0-16.63V200.34H316v15.93Zm0-16.63V183.71H316v15.93Zm0-16.63V167H316v16Zm0-16.71V150.37H316V166.3Zm0-16.63V133.74H316v15.93Zm0-16.63V117.11H316V133Zm0-16.63V100.48H316v15.93Zm0-16.63V83.85H316V99.78Zm0-16.63V67.22H316V83.15Zm0-16.63V50.59H316V66.52Zm0-16.63V34H316V49.89Zm0-16.63V17.33H316V33.26Zm-.7,0H283.48V17.33h15.93Zm-16.63,0H266.85V17.33h15.93Zm-16.63,0H250.22V17.33h15.93Zm-16.62,0H233.59V17.33h15.94Zm-16.63,0H217V17.33H232.9Zm-16.63,0H200.34V17.33h15.93Zm-16.63,0H183.71V17.33h15.93Zm-16.63,0H167V17.33h16Zm-16.72,0H150.36V17.33h15.93Zm-16.63,0H133.73V17.33h15.93Zm-16.63,0H117.1V17.33H133Zm-16.62,0H100.47V17.33h15.94Zm-16.63,0H83.85V17.33H99.78Zm-16.63,0H67.22V17.33H83.15Zm-16.63,0H50.59V17.33H66.52Zm-16.63,0H34V17.33H49.89Zm0,.7V49.89H34V34ZM33.26,49.89H17.33V34H33.26Zm0,.7V66.52H17.33V50.59Zm0,16.63V83.15H17.33V67.22Zm0,16.63V99.78H17.33V83.85Zm0,16.63v15.93H17.33V100.48Zm0,16.63V133H17.33V117.11Zm0,16.63v15.93H17.33V133.74Zm0,16.63V166.3H17.33V150.37Zm0,16.63v16H17.33V167Zm0,16.71v15.93H17.33V183.71Zm0,16.63v15.93H17.33V200.34Zm0,16.63V232.9H17.33V217Zm0,16.63v15.93H17.33V233.6Zm0,16.63v15.93H17.33V250.23Zm0,16.63v15.93H17.33V266.86Zm0,16.63v15.93H17.33V283.49Zm0,16.63v15.93H17.33V300.12Zm.7,0H49.89v15.93H34Zm15.93,16.63v15.93H34V316.75Zm.7,0H66.52v15.93H50.59Zm16.63,0H83.15v15.93H67.22Zm16.63,0H99.78v15.93H83.85Zm16.62,0h15.94v15.93H100.47Zm16.63,0H133v15.93H117.1Zm16.63,0h15.93v15.93H133.73Zm16.63,0h15.93v15.93H150.36Zm16.63,0h16v15.93H167Zm16.72,0h15.93v15.93H183.71Zm16.63,0h15.93v15.93H200.34Zm16.62,0H232.9v15.93H217Zm16.63,0h15.94v15.93H233.59Zm16.63,0h15.93v15.93H250.22Zm16.63,0h15.93v15.93H266.85Zm16.63,0h15.93v15.93H283.48Zm16.63,0H316v15.93H300.11Zm0-.7V300.12H316v15.93Zm16.63-15.93h15.93v15.93H316.74Zm0-.7V283.49h15.93v15.93Zm0-16.63V266.86h15.93v15.93Zm0-16.63V250.23h15.93v15.93Zm0-16.63V233.6h15.93v15.93Zm0-16.63V217h15.93V232.9Zm0-16.63V200.34h15.93v15.93Zm0-16.63V183.71h15.93v15.93Zm0-16.63V167h15.93v16Zm0-16.71V150.37h15.93V166.3Zm0-16.63V133.74h15.93v15.93Zm0-16.63V117.11h15.93V133Zm0-16.63V100.48h15.93v15.93Zm0-16.63V83.85h15.93V99.78Zm0-16.63V67.22h15.93V83.15Zm0-16.63V50.59h15.93V66.52Zm0-16.63V34h15.93V49.89Zm0-16.63V17.33h15.93V33.26Zm0-16.63V.7h15.93V16.63Zm-.7,0H300.11V.7H316Zm-16.63,0H283.48V.7h15.93Zm-16.63,0H266.85V.7h15.93Zm-16.63,0H250.22V.7h15.93Zm-16.62,0H233.59V.7h15.94Zm-16.63,0H217V.7H232.9Zm-16.63,0H200.34V.7h15.93Zm-16.63,0H183.71V.7h15.93Zm-16.63,0H167V.7h16Zm-16.72,0H150.36V.7h15.93Zm-16.63,0H133.73V.7h15.93Zm-16.63,0H117.1V.7H133Zm-16.62,0H100.47V.7h15.94Zm-16.63,0H83.85V.7H99.78Zm-16.63,0H67.22V.7H83.15Zm-16.63,0H50.59V.7H66.52Zm-16.63,0H34V.7H49.89Zm-16.63,0H17.33V.7H33.26Zm0,.7V33.26H17.33V17.33ZM16.63,33.26H.7V17.33H16.63Zm0,.7V49.89H.7V34Zm0,16.63V66.52H.7V50.59Zm0,16.63V83.15H.7V67.22Zm0,16.63V99.78H.7V83.85Zm0,16.63v15.93H.7V100.48Zm0,16.63V133H.7V117.11Zm0,16.63v15.93H.7V133.74Zm0,16.63V166.3H.7V150.37Zm0,16.63v16H.7V167Zm0,16.71v15.93H.7V183.71Zm0,16.63v15.93H.7V200.34Zm0,16.63V232.9H.7V217Zm0,16.63v15.93H.7V233.6Zm0,16.63v15.93H.7V250.23Zm0,16.63v15.93H.7V266.86Zm0,16.63v15.93H.7V283.49Zm0,16.63v15.93H.7V300.12Zm0,16.63v15.93H.7V316.75Zm.7,0H33.26v15.93H17.33Zm15.93,16.62V349.3H17.33V333.37Zm.7,0H49.89V349.3H34Zm16.63,0H66.52V349.3H50.59Zm16.63,0H83.15V349.3H67.22Zm16.63,0H99.78V349.3H83.85Zm16.62,0h15.94V349.3H100.47Zm16.63,0H133V349.3H117.1Zm16.63,0h15.93V349.3H133.73Zm16.63,0h15.93V349.3H150.36Zm16.63,0h16V349.3H167Zm16.72,0h15.93V349.3H183.71Zm16.63,0h15.93V349.3H200.34Zm16.62,0H232.9V349.3H217Zm16.63,0h15.94V349.3H233.59Zm16.63,0h15.93V349.3H250.22Zm16.63,0h15.93V349.3H266.85Zm16.63,0h15.93V349.3H283.48Zm16.63,0H316V349.3H300.11Zm16.63,0h15.93V349.3H316.74Zm0-.69V316.75h15.93v15.93Zm16.63-15.93H349.3v15.93H333.37Zm0-.7V300.12H349.3v15.93Zm0-16.63V283.49H349.3v15.93Zm0-16.63V266.86H349.3v15.93Zm0-16.63V250.23H349.3v15.93Zm0-16.63V233.6H349.3v15.93Zm0-16.63V217H349.3V232.9Zm0-16.63V200.34H349.3v15.93Zm0-16.63V183.71H349.3v15.93Zm0-16.63V167H349.3v16Zm0-16.71V150.37H349.3V166.3Zm0-16.63V133.74H349.3v15.93Zm0-16.63V117.11H349.3V133Zm0-16.63V100.48H349.3v15.93Zm0-16.63V83.85H349.3V99.78Zm0-16.63V67.22H349.3V83.15Zm0-16.63V50.59H349.3V66.52Zm0-16.63V34H349.3V49.89Zm0-16.63V17.33H349.3V33.26ZM16.63.7V16.63H.7V.7ZM.7,333.37H16.63V349.3H.7ZM333.37,349.3V333.37H349.3V349.3Z" transform="translate(0 0)" style="opacity: 0.2;mix-blend-mode: multiply;fill: url(#radial-gradient-2)"/>
    </g>
    <g id="Layer_2" data-name="Layer 2">
      <rect x="160.13" y="191.68" width="1.27" height="158.31" style="fill: #fff"/>
      <rect x="138.14" y="181.32" width="1.27" height="18.11" style="fill: #fff"/>
      <rect x="169.6" y="139.25" width="1.27" height="95.07" style="fill: #fff"/>
      <rect x="164.2" y="144.7" width="1.27" height="80.03" style="fill: #fff"/>
      <rect x="196.78" y="189.29" width="1.27" height="14.99" style="fill: #fff"/>
      <rect x="180.49" y="180.73" width="1.26" height="31.9" style="fill: #fff"/>
      <rect x="191.38" y="209.15" width="1.26" height="140.85" style="fill: #fff"/>
      <rect x="194.08" y="213.76" width="1.27" height="136.24" style="fill: #fff"/>
      <rect x="188.88" y="209.15" width="1.27" height="72.73" style="fill: #fff"/>
      <rect x="164.2" y="239.19" width="1.27" height="20.21" style="fill: #fff"/>
      <rect x="117.42" y="176.85" width="29.13" height="1.27" style="fill: #fff"/>
      <rect x="152.9" y="174.23" width="1.27" height="20.98" transform="translate(-85.65 162.65) rotate(-45)" style="fill: #fff"/>
      <rect x="111.98" y="222.16" width="29.13" height="1.27" style="fill: #fff"/>
      <rect x="147.45" y="219.54" width="1.27" height="20.98" transform="translate(-119.28 172.07) rotate(-45)" style="fill: #fff"/>
      <rect x="82.12" y="199.4" width="1.27" height="20.98" transform="translate(-124.17 119.98) rotate(-45)" style="fill: #fff"/>
      <rect x="104.38" y="205.08" width="1.27" height="20.98" transform="translate(-121.67 137.39) rotate(-45)" style="fill: #fff"/>
      <rect x="156.97" y="170.55" width="1.27" height="20.98" transform="translate(-81.85 164.45) rotate(-45)" style="fill: #fff"/>
      <rect x="142.17" y="186.55" width="1.27" height="11.87" transform="translate(-94.27 157.28) rotate(-44.98)" style="fill: #fff"/>
      <rect x="129.82" y="201.77" width="1.27" height="11.87" transform="translate(-108.65 153) rotate(-44.98)" style="fill: #fff"/>
      <rect x="131.33" y="224.83" width="1.27" height="11.87" transform="translate(-124.5 160.82) rotate(-44.98)" style="fill: #fff"/>
      <rect x="72.29" y="208.26" width="1.27" height="11.87" transform="translate(-130.07 114.24) rotate(-44.98)" style="fill: #fff"/>
      <rect x="114.42" y="96.34" width="29.13" height="1.26" style="fill: #fff"/>
      <rect x="149.89" y="93.72" width="1.27" height="20.98" transform="translate(-29.6 136.95) rotate(-45)" style="fill: #fff"/>
      <rect x="241.39" y="126.53" width="29.13" height="1.27" style="fill: #fff"/>
      <rect x="276.86" y="123.91" width="1.26" height="20.98" transform="translate(-13.76 235.58) rotate(-45)" style="fill: #fff"/>
      <rect x="268.03" y="157.5" width="29.13" height="1.27" style="fill: #fff"/>
      <rect x="303.5" y="154.87" width="1.27" height="20.98" transform="translate(-27.85 263.47) rotate(-45)" style="fill: #fff"/>
      <rect x="260.69" y="184.03" width="1.27" height="20.98" transform="translate(-61.01 241.75) rotate(-45)" style="fill: #fff"/>
      <rect x="142.37" y="197.17" width="1.26" height="12.49" transform="translate(-101.93 160.6) rotate(-44.98)" style="fill: #fff"/>
      <rect x="147.72" y="51.02" width="1.27" height="18.11" style="fill: #fff"/>
      <rect x="151.95" y="66.86" width="1.27" height="12.49" transform="translate(-7.03 129.24) rotate(-44.98)" style="fill: #fff"/>
      <rect x="144.12" y="55.55" width="1.26" height="18.11" style="fill: #fff"/>
      <rect x="120.56" y="69.13" width="1.27" height="9.91" style="fill: #fff"/>
      <rect x="150.15" y="70.65" width="1.27" height="17.57" transform="translate(-12.02 129.83) rotate(-44.98)" style="fill: #fff"/>
      <rect x="126.59" y="76.02" width="1.27" height="17.57" transform="translate(-22.71 114.75) rotate(-44.98)" style="fill: #fff"/>
      <rect x="156.67" y="132.78" width="1.27" height="7.92" transform="translate(-50.61 151.47) rotate(-45.05)" style="fill: #fff"/>
      <rect x="257.42" y="140.7" width="1.27" height="11.73" transform="translate(-27.98 225.69) rotate(-45.06)" style="fill: #fff"/>
      <rect x="142.03" y="128.7" width="1.26" height="7.92" transform="translate(-52.01 139.92) rotate(-45.06)" style="fill: #fff"/>
      <polygon points="92.17 138.24 86.63 132.74 87.51 131.87 93.05 137.36 92.17 138.24" style="fill: #fff"/>
      <polygon points="68.09 122.31 62.56 116.82 63.44 115.94 68.98 121.43 68.09 122.31" style="fill: #fff"/>
      <rect x="119.46" y="147.7" width="1.27" height="7.92" transform="translate(-72.09 129.52) rotate(-45.05)" style="fill: #fff"/>
      <rect x="53.81" y="136.31" width="1.27" height="7.92" transform="translate(-83.3 79.72) rotate(-45.06)" style="fill: #fff"/>
      <rect x="156.39" y="154.07" width="1.27" height="7.92" transform="translate(-65.76 157.52) rotate(-45.05)" style="fill: #fff"/>
      <rect x="120.68" y="182.83" width="1.27" height="7.92" transform="translate(-96.6 140.69) rotate(-45.05)" style="fill: #fff"/>
      <rect x="124.21" y="209.84" width="1.27" height="7.92" transform="translate(-114.68 151.13) rotate(-45.06)" style="fill: #fff"/>
      <rect x="74.73" y="204.96" width="1.27" height="7.92" transform="translate(-125.74 114.66) rotate(-45.05)" style="fill: #fff"/>
      <rect x="40.97" y="156.72" width="1.27" height="7.92" transform="translate(-101.51 76.61) rotate(-45.05)" style="fill: #fff"/>
      <rect x="98.98" y="87.9" width="1.27" height="7.92" transform="translate(-35.77 97.48) rotate(-45.06)" style="fill: #fff"/>
      <rect x="88.25" y="150.31" width="1.27" height="7.92" transform="translate(-83.1 108.21) rotate(-45.06)" style="fill: #fff"/>
      <rect x="150.8" y="138.62" width="1.27" height="7.92" transform="translate(-56.46 149.04) rotate(-45.06)" style="fill: #fff"/>
      <rect x="105.08" y="120.74" width="1.27" height="7.92" transform="translate(-57.23 111.44) rotate(-45.06)" style="fill: #fff"/>
      <polygon points="181 126.53 169.81 115.44 170.71 114.55 181.9 125.63 181 126.53" style="fill: #fff"/>
      <polygon points="181.31 218.96 175.86 213.53 176.75 212.63 182.21 218.06 181.31 218.96" style="fill: #fff"/>
      <polygon points="160.31 229.61 154.85 224.18 155.75 223.28 161.2 228.72 160.31 229.61" style="fill: #fff"/>
      <polygon points="150.75 302.6 145.29 297.16 146.19 296.27 151.64 301.7 150.75 302.6" style="fill: #fff"/>
      <polygon points="92.74 213.47 87.29 208.04 88.18 207.15 93.64 212.58 92.74 213.47" style="fill: #fff"/>
      <polygon points="47.66 154.35 42.2 148.92 43.1 148.02 48.55 153.45 47.66 154.35" style="fill: #fff"/>
      <polygon points="70.36 209.17 64.9 203.74 65.79 202.84 71.25 208.28 70.36 209.17" style="fill: #fff"/>
      <polygon points="56.38 178.84 50.93 173.41 51.82 172.51 57.28 177.94 56.38 178.84" style="fill: #fff"/>
      <rect x="253.87" y="169.29" width="1.27" height="13.22" transform="translate(-49.79 231.73) rotate(-45.05)" style="fill: #fff"/>
      <rect x="236.6" y="143.29" width="1.26" height="18.51" transform="translate(-38.38 212.44) rotate(-45)" style="fill: #fff"/>
      <rect x="203.1" y="143.36" width="1.27" height="9.25" transform="translate(-44.97 187.39) rotate(-45)" style="fill: #fff"/>
      <rect x="208.28" y="143.36" width="1.27" height="9.25" transform="translate(-43.46 191.05) rotate(-45)" style="fill: #fff"/>
      <rect x="205.47" y="128.9" width="1.27" height="9.25" transform="translate(-34.05 184.82) rotate(-45)" style="fill: #fff"/>
      <rect x="228.33" y="133.48" width="1.27" height="9.25" transform="translate(-30.6 202.33) rotate(-45)" style="fill: #fff"/>
      <rect x="174.93" y="96.31" width="1.27" height="9.25" transform="translate(-19.95 153.7) rotate(-45)" style="fill: #fff"/>
      <rect x="186.6" y="84.41" width="1.27" height="9.25" transform="translate(-8.12 158.47) rotate(-45)" style="fill: #fff"/>
      <polygon points="216.92 130.04 206.87 119.93 207.76 119.04 217.82 129.15 216.92 130.04" style="fill: #fff"/>
      <polygon points="195.09 114.3 185.03 104.19 185.93 103.3 195.98 113.41 195.09 114.3" style="fill: #fff"/>
      <polygon points="267.23 99.66 257.18 89.55 258.08 88.66 268.13 98.77 267.23 99.66" style="fill: #fff"/>
      <polygon points="257.2 110.2 247.15 100.09 248.05 99.19 258.1 109.3 257.2 110.2" style="fill: #fff"/>
      <polygon points="292.67 133.3 282.61 123.19 283.51 122.3 293.56 132.41 292.67 133.3" style="fill: #fff"/>
      <rect x="185.82" y="109.56" width="1.26" height="12.69" transform="translate(-27.39 165.6) rotate(-44.95)" style="fill: #fff"/>
      <rect x="183.35" y="88.92" width="1.27" height="12.69" transform="translate(-13.53 157.82) rotate(-44.95)" style="fill: #fff"/>
      <rect x="210.06" y="238.01" width="1.27" height="11.12" transform="translate(-110.52 220.29) rotate(-45)" style="fill: #fff"/>
      <rect x="167.95" y="257.32" width="1.27" height="11.12" transform="translate(-136.51 196.21) rotate(-45)" style="fill: #fff"/>
      <rect x="163.45" y="236.12" width="8.16" height="1.27" transform="translate(-118.31 187.63) rotate(-44.97)" style="fill: #fff"/>
      <rect x="167.53" y="240.73" width="1.27" height="15.61" style="fill: #fff"/>
      <rect x="172.94" y="224.2" width="1.27" height="11.66" style="fill: #fff"/>
      <rect x="166.79" y="237.66" width="8.16" height="1.27" transform="translate(-118.43 190.47) rotate(-44.97)" style="fill: #fff"/>
      <rect x="190.63" y="206.09" width="8.16" height="1.27" transform="translate(-89.14 198.01) rotate(-44.96)" style="fill: #fff"/>
      <rect x="199.49" y="193.9" width="1.27" height="14.99" style="fill: #fff"/>
      <rect x="193.34" y="210.71" width="8.16" height="1.27" transform="translate(-91.61 201.32) rotate(-44.97)" style="fill: #fff"/>
      <rect x="196.78" y="217.47" width="1.26" height="104.14" style="fill: #fff"/>
      <rect x="196.04" y="214.41" width="8.16" height="1.27" transform="translate(-93.44 204.31) rotate(-44.97)" style="fill: #fff"/>
      <rect x="167.14" y="252.38" width="8.16" height="1.27" transform="translate(-128.72 194.97) rotate(-44.96)" style="fill: #fff"/>
      <rect x="165.52" y="296.47" width="8.16" height="1.27" transform="translate(-160.35 206.71) rotate(-44.96)" style="fill: #fff"/>
      <rect x="182.73" y="283.69" width="8.16" height="1.27" transform="translate(-146.28 215.14) rotate(-44.96)" style="fill: #fff"/>
      <rect x="203.34" y="306.35" width="8.16" height="1.27" transform="translate(-156.28 236.36) rotate(-44.97)" style="fill: #fff"/>
      <rect x="183.47" y="188.39" width="1.27" height="15.9" style="fill: #fff"/>
      <rect x="186.17" y="202.65" width="1.27" height="8.16" transform="translate(-91.47 192.85) rotate(-45.04)" style="fill: #fff"/>
      <rect x="210.4" y="209.54" width="8.16" height="1.26" transform="translate(-85.79 213.01) rotate(-44.96)" style="fill: #fff"/>
      <rect x="220.35" y="213.95" width="8.16" height="1.26" transform="translate(-86.01 221.28) rotate(-44.95)" style="fill: #fff"/>
      <rect x="240.72" y="203.91" width="16.84" height="1.27" transform="translate(-71.66 236.15) rotate(-45.01)" style="fill: #fff"/>
      <rect x="288.79" y="204.78" width="9.21" height="1.26" transform="translate(-59.21 268.18) rotate(-45.09)" style="fill: #fff"/>
      <rect x="265.78" y="196.29" width="14.2" height="1.26" transform="translate(-59.33 250.55) rotate(-44.99)" style="fill: #fff"/>
      <rect x="230.58" y="219.68" width="14.2" height="1.26" transform="translate(-86.18 232.51) rotate(-44.99)" style="fill: #fff"/>
      <rect x="190.11" y="119.93" width="1.27" height="51.78" style="fill: #fff"/>
      <polygon points="181.38 181.63 191.38 171.72 190.49 170.82 180.49 180.73 181.38 181.63" style="fill: #fff"/>
      <polygon points="111.33 192.43 121.33 182.52 120.44 181.63 110.44 191.53 111.33 192.43" style="fill: #fff"/>
      <polygon points="82.89 199.07 92.89 189.16 91.99 188.26 82 198.17 82.89 199.07" style="fill: #fff"/>
      <polygon points="83.75 189.45 93.75 179.54 92.85 178.65 82.85 188.56 83.75 189.45" style="fill: #fff"/>
      <polygon points="100.46 180.4 110.46 170.49 109.56 169.6 99.57 179.51 100.46 180.4" style="fill: #fff"/>
      <polygon points="57.05 190.91 67.05 181 66.15 180.11 56.16 190.02 57.05 190.91" style="fill: #fff"/>
      <polygon points="51.69 184.6 61.68 174.69 60.79 173.8 50.79 183.71 51.69 184.6" style="fill: #fff"/>
      <polygon points="44.65 158.18 54.64 148.27 53.75 147.38 43.75 157.29 44.65 158.18" style="fill: #fff"/>
      <polygon points="73.51 170 83.51 160.09 82.61 159.2 72.61 169.11 73.51 170" style="fill: #fff"/>
      <polygon points="60.27 161.97 70.27 152.06 69.37 151.17 59.38 161.07 60.27 161.97" style="fill: #fff"/>
      <polygon points="32.57 165.06 42.57 155.16 41.67 154.26 31.68 164.17 32.57 165.06" style="fill: #fff"/>
      <polygon points="70.2 184.18 80.2 174.28 79.3 173.38 69.31 183.29 70.2 184.18" style="fill: #fff"/>
      <polygon points="99.33 229.6 109.32 219.69 108.43 218.8 98.43 228.7 99.33 229.6" style="fill: #fff"/>
      <polygon points="122.73 233.14 132.73 223.23 131.83 222.33 121.84 232.24 122.73 233.14" style="fill: #fff"/>
      <rect x="186.35" y="127.8" width="1.27" height="39.2" style="fill: #fff"/>
      <polygon points="180.27 174.22 187.61 167 186.72 166.1 179.37 173.33 180.27 174.22" style="fill: #fff"/>
      <polygon points="146.88 192.16 154.23 184.93 153.34 184.04 145.99 191.27 146.88 192.16" style="fill: #fff"/>
      <polygon points="115.59 172.3 122.94 165.08 122.04 164.18 114.69 171.41 115.59 172.3" style="fill: #fff"/>
      <polygon points="184.37 189.29 194.36 179.38 193.47 178.49 183.47 188.4 184.37 189.29" style="fill: #fff"/>
      <rect x="121.31" y="206.89" width="1.27" height="15.9" style="fill: #fff"/>
      <polygon points="122.2 207.79 132.2 197.88 131.31 196.99 121.31 206.9 122.2 207.79" style="fill: #fff"/>
      <polygon points="145.56 206.8 155.56 196.89 154.66 196 144.67 205.91 145.56 206.8" style="fill: #fff"/>
      <polygon points="207.23 171.84 217.23 161.93 216.33 161.04 206.34 170.94 207.23 171.84" style="fill: #fff"/>
      <polygon points="249.31 165.75 259.3 155.84 258.4 154.95 248.41 164.86 249.31 165.75" style="fill: #fff"/>
      <polygon points="262.21 194.98 272.21 185.07 271.32 184.18 261.32 194.09 262.21 194.98" style="fill: #fff"/>
      <polygon points="280.58 180.34 290.58 170.43 289.69 169.54 279.69 179.44 280.58 180.34" style="fill: #fff"/>
      <polygon points="264.12 214.76 274.11 204.85 273.22 203.96 263.22 213.87 264.12 214.76" style="fill: #fff"/>
      <rect x="169.82" y="83.54" width="1.26" height="31.9" style="fill: #fff"/>
      <polygon points="167.43 111.49 156.24 100.4 157.13 99.51 168.32 110.59 167.43 111.49" style="fill: #fff"/>
      <rect x="156.24" y="68.5" width="1.27" height="31.9" style="fill: #fff"/>
      <polygon points="170.71 84.44 176.15 79.04 175.26 78.14 169.81 83.54 170.71 84.44" style="fill: #fff"/>
      <polygon points="212.72 112.89 201.53 101.8 202.43 100.91 213.62 111.99 212.72 112.89" style="fill: #fff"/>
      <polygon points="188.71 82.38 177.52 71.3 178.42 70.4 189.61 81.49 188.71 82.38" style="fill: #fff"/>
      <rect x="201.53" y="69.9" width="1.27" height="31.9" style="fill: #fff"/>
      <polygon points="202.43 70.8 212.42 60.89 211.53 59.99 201.53 69.9 202.43 70.8" style="fill: #fff"/>
      <polygon points="194.31 50.49 204.3 40.58 203.41 39.69 193.41 49.6 194.31 50.49" style="fill: #fff"/>
      <polygon points="179.59 54.88 189.59 44.97 188.69 44.08 178.69 53.99 179.59 54.88" style="fill: #fff"/>
      <rect x="211.15" y="180.69" width="1.26" height="31.9" style="fill: #fff"/>
      <polygon points="212.04 181.58 222.04 171.68 221.14 170.78 211.15 180.69 212.04 181.58" style="fill: #fff"/>
      <polygon points="245.27 197.46 255.26 187.55 254.37 186.65 244.37 196.56 245.27 197.46" style="fill: #fff"/>
      <rect x="109.82" y="159.77" width="1.27" height="20.98" transform="translate(-88.04 127.97) rotate(-45)" style="fill: #fff"/>
      <rect x="87.43" y="154.26" width="1.27" height="20.98" transform="translate(-90.71 110.52) rotate(-45)" style="fill: #fff"/>
      <rect x="102.27" y="139.25" width="29.13" height="1.27" style="fill: #fff"/>
      <rect x="94.67" y="122.17" width="1.27" height="20.98" transform="translate(-65.89 106.24) rotate(-45)" style="fill: #fff"/>
      <rect x="69.63" y="102.81" width="1.27" height="20.98" transform="translate(-59.54 82.87) rotate(-45)" style="fill: #fff"/>
      <polygon points="115.44 140.43 109.42 134.39 110.31 133.5 116.33 139.54 115.44 140.43" style="fill: #fff"/>
      <polygon points="112.84 146.33 106.82 140.28 107.72 139.39 113.73 145.44 112.84 146.33" style="fill: #fff"/>
      <polygon points="101.09 84.89 95.07 78.84 95.96 77.95 101.98 83.99 101.09 84.89" style="fill: #fff"/>
      <polygon points="71.07 142.86 65.05 136.82 65.95 135.92 71.97 141.97 71.07 142.86" style="fill: #fff"/>
      <rect x="136.34" y="144.7" width="29.13" height="1.27" style="fill: #fff"/>
      <rect x="133.3" y="129.38" width="21.38" height="1.26" style="fill: #fff"/>
      <rect x="128.74" y="127.61" width="1.27" height="20.98" transform="translate(-59.76 131.92) rotate(-45)" style="fill: #fff"/>
      <rect x="206.31" y="160.05" width="1.26" height="80.03" style="fill: #fff"/>
      <rect x="199.57" y="162.08" width="1.27" height="5.04" style="fill: #fff"/>
      <rect x="142.09" y="239.77" width="21.74" height="1.27" transform="translate(-125.18 178.5) rotate(-44.99)" style="fill: #fff"/>
      <rect x="166.27" y="261.01" width="1.27" height="44.49" style="fill: #fff"/>
      <rect x="204.08" y="309.41" width="1.26" height="40.59" style="fill: #fff"/>
      <rect x="201.87" y="326.16" width="1.27" height="23.84" style="fill: #fff"/>
      <rect x="171.35" y="310.04" width="1.27" height="39.96" style="fill: #fff"/>
      <rect x="150.38" y="241.98" width="1.27" height="108.02" style="fill: #fff"/>
      <rect x="183.47" y="286.75" width="1.27" height="63.25" style="fill: #fff"/>
      <rect x="198.91" y="167.77" width="1.27" height="12.39" transform="translate(-64.56 192.03) rotate(-45)" style="fill: #fff"/>
      <rect x="230.06" y="195.21" width="1.27" height="12.39" transform="translate(-74.85 222.09) rotate(-45)" style="fill: #fff"/>
      <rect x="217.03" y="226.94" width="1.27" height="12.39" transform="translate(-101.1 222.17) rotate(-45)" style="fill: #fff"/>
      <rect x="106.38" y="223.76" width="1.27" height="12.39" transform="translate(-131.25 143) rotate(-45)" style="fill: #fff"/>
      <rect x="257.85" y="213.72" width="1.27" height="12.39" transform="translate(-79.8 247.17) rotate(-45)" style="fill: #fff"/>
      <rect x="242.81" y="169.71" width="1.27" height="12.39" transform="translate(-53.08 223.67) rotate(-45)" style="fill: #fff"/>
      <rect x="252.6" y="202.4" width="1.27" height="12.39" transform="translate(-73.33 240.14) rotate(-45)" style="fill: #fff"/>
      <rect x="223.4" y="146.01" width="1.27" height="12.39" transform="translate(-42 203) rotate(-45)" style="fill: #fff"/>
      <rect x="268.35" y="160.11" width="1.27" height="12.39" transform="translate(-38.81 238.91) rotate(-45)" style="fill: #fff"/>
      <rect x="225.29" y="214.76" width="1.27" height="12.39" transform="translate(-90.07 224.44) rotate(-45)" style="fill: #fff"/>
      <rect x="246.93" y="207.78" width="1.27" height="12.39" transform="translate(-78.8 237.71) rotate(-45)" style="fill: #fff"/>
      <rect x="220.52" y="173.92" width="1.27" height="12.39" transform="translate(-62.59 209.11) rotate(-45)" style="fill: #fff"/>
      <rect x="194.71" y="89.99" width="1.27" height="80.03" style="fill: #fff"/>
      <rect x="203.1" y="177.89" width="1.26" height="24.64" style="fill: #fff"/>
      <rect x="221.15" y="145.22" width="29.13" height="1.27" style="fill: #fff"/>
      <rect x="221.15" y="170.78" width="29.13" height="1.27" style="fill: #fff"/>
      <rect x="225.08" y="183.67" width="13.01" height="1.27" style="fill: #fff"/>
      <rect x="273" y="198.09" width="1.27" height="12.39" transform="translate(-64.31 253.32) rotate(-45)" style="fill: #fff"/>
      <rect x="277.56" y="207.85" width="13.01" height="1.26" style="fill: #fff"/>
      <polygon points="207.2 235.43 217.2 225.52 216.31 224.62 206.31 234.53 207.2 235.43" style="fill: #fff"/>
      <polygon points="245.44 225.89 255.44 215.98 254.54 215.09 244.55 224.99 245.44 225.89" style="fill: #fff"/>
      <rect x="216.31" y="224.62" width="29.13" height="1.27" style="fill: #fff"/>
      <rect x="203.68" y="152.45" width="20.98" height="1.27" transform="translate(-45.52 196.27) rotate(-45)" style="fill: #fff"/>
      <rect x="210.28" y="139.3" width="20.98" height="1.27" transform="translate(-34.29 197.09) rotate(-45)" style="fill: #fff"/>
      <polygon points="228.64 128.06 233.42 123.19 232.53 122.3 227.74 127.17 228.64 128.06" style="fill: #fff"/>
      <polygon points="228.3 120.97 233.08 116.11 232.19 115.21 227.4 120.08 228.3 120.97" style="fill: #fff"/>
      <polygon points="247.68 121.52 252.46 116.66 251.57 115.76 246.78 120.63 247.68 121.52" style="fill: #fff"/>
      <polygon points="299.48 145.86 304.26 140.99 303.37 140.1 298.58 144.96 299.48 145.86" style="fill: #fff"/>
      <rect x="197.5" y="155.84" width="17.21" height="1.27" transform="translate(-50.28 191.54) rotate(-45)" style="fill: #fff"/>
      <rect x="246.76" y="137.99" width="20.98" height="1.27" transform="translate(-22.68 222.49) rotate(-45)" style="fill: #fff"/>
      <rect x="271.73" y="153.75" width="29.13" height="1.27" style="fill: #fff"/>
      <rect x="297.34" y="146.52" width="20.98" height="1.27" transform="translate(-13.89 260.77) rotate(-45)" style="fill: #fff"/>
      <rect x="110.28" y="181.32" width="29.13" height="1.27" style="fill: #fff"/>
      <rect x="91.24" y="156.25" width="22.84" height="1.27" style="fill: #fff"/>
      <rect x="154.05" y="124.01" width="1.26" height="10.38" style="fill: #fff"/>
      <rect x="126.19" y="124.01" width="29.13" height="1.27" style="fill: #fff"/>
      <rect x="92.82" y="188.56" width="20.98" height="1.27" transform="translate(-103.52 128.46) rotate(-45)" style="fill: #fff"/>
      <rect x="100.68" y="206.09" width="20.98" height="1.26" transform="translate(-113.62 139.16) rotate(-45)" style="fill: #fff"/>
      <rect x="58.35" y="209.26" width="20.98" height="1.27" transform="translate(-128.26 110.15) rotate(-45)" style="fill: #fff"/>
      <polygon points="98.02 207.7 88.83 216.86 89.73 217.75 98.92 208.59 98.02 207.7" style="fill: #fff"/>
      <rect x="153.72" y="151.4" width="1.27" height="18.11" style="fill: #fff"/>
      <rect x="109.64" y="150.07" width="12.49" height="1.27" transform="translate(-72.63 126.15) rotate(-45.02)" style="fill: #fff"/>
      <rect x="135.85" y="148.93" width="12.49" height="1.27" transform="translate(-64.14 144.37) rotate(-45.03)" style="fill: #fff"/>
      <rect x="136.56" y="163.97" width="12.49" height="1.27" transform="translate(-74.57 149.28) rotate(-45.03)" style="fill: #fff"/>
      <rect x="45.8" y="136.2" width="12.49" height="1.27" transform="translate(-81.56 76.98) rotate(-45.04)" style="fill: #fff"/>
      <rect x="92.77" y="167.12" width="12.49" height="1.26" transform="translate(-89.64 119.22) rotate(-45.02)" style="fill: #fff"/>
      <rect x="125.63" y="91.95" width="12.49" height="1.27" transform="translate(-26.83 120.42) rotate(-45.02)" style="fill: #fff"/>
      <rect x="75.61" y="146.57" width="12.49" height="1.27" transform="translate(-80.13 101.06) rotate(-45.02)" style="fill: #fff"/>
      <rect x="91.76" y="97.56" width="12.49" height="1.27" transform="translate(-40.72 98.11) rotate(-45.02)" style="fill: #fff"/>
      <rect x="74.95" y="115.67" width="12.49" height="1.27" transform="translate(-58.47 91.52) rotate(-45.02)" style="fill: #fff"/>
      <rect x="138.37" y="106.15" width="12.49" height="1.27" transform="translate(-33.14 133.6) rotate(-45.02)" style="fill: #fff"/>
      <rect x="57.03" y="115.05" width="12.49" height="1.27" transform="translate(-63.28 78.67) rotate(-45.02)" style="fill: #fff"/>
      <rect x="157.67" y="129.1" width="12.49" height="1.27" transform="translate(-43.72 153.98) rotate(-45.02)" style="fill: #fff"/>
      <rect x="229.24" y="175.81" width="12.49" height="1.27" transform="translate(-55.77 218.29) rotate(-45.02)" style="fill: #fff"/>
      <rect x="230.33" y="228.98" width="12.49" height="1.27" transform="translate(-93.07 234.66) rotate(-45.02)" style="fill: #fff"/>
      <rect x="123.96" y="106.15" width="12.49" height="1.27" transform="translate(-37.36 123.41) rotate(-45.02)" style="fill: #fff"/>
      <rect x="228.83" y="85.16" width="12.49" height="1.27" transform="translate(8.23 191.44) rotate(-45.02)" style="fill: #fff"/>
      <rect x="123.32" y="78.09" width="12.49" height="1.27" transform="translate(-17.71 114.73) rotate(-45.02)" style="fill: #fff"/>
      <rect x="89.04" y="77.93" width="12.49" height="1.27" transform="translate(-27.64 90.43) rotate(-45.02)" style="fill: #fff"/>
      <rect x="143.23" y="85.81" width="12.49" height="1.27" transform="translate(-17.33 131.07) rotate(-45.02)" style="fill: #fff"/>
      <rect x="109.2" y="67.75" width="12.49" height="1.27" transform="translate(-14.53 101.71) rotate(-45.03)" style="fill: #fff"/>
      <rect x="155.06" y="84.41" width="12.49" height="1.27" transform="translate(-12.86 139.03) rotate(-45.02)" style="fill: #fff"/>
      <polygon points="93.73 86.5 81.69 98.58 82.58 99.48 94.62 87.4 93.73 86.5" style="fill: #fff"/>
      <polygon points="132.6 57.06 120.56 69.14 121.46 70.03 133.5 57.95 132.6 57.06" style="fill: #fff"/>
      <rect x="231.93" y="164.73" width="29.13" height="1.27" style="fill: #fff"/>
      <rect x="257.54" y="157.5" width="20.98" height="1.27" transform="translate(-33.31 235.84) rotate(-45)" style="fill: #fff"/>
      <rect x="254.67" y="163.35" width="1.26" height="12.49" transform="translate(-45.17 230.07) rotate(-44.98)" style="fill: #fff"/>
      <rect x="288.97" y="173.08" width="1.27" height="12.49" transform="translate(-42.01 257.15) rotate(-44.98)" style="fill: #fff"/>
      <rect x="272.2" y="207.58" width="1.27" height="12.49" transform="translate(-71.3 255.41) rotate(-44.98)" style="fill: #fff"/>
      <rect x="236.82" y="186.35" width="1.26" height="12.49" transform="translate(-66.65 224.21) rotate(-44.98)" style="fill: #fff"/>
      <rect x="299.2" y="140.05" width="1.27" height="12.49" transform="translate(-15.67 254.73) rotate(-44.98)" style="fill: #fff"/>
      <rect x="285.09" y="160.22" width="1.26" height="12.49" transform="translate(-34.06 250.65) rotate(-44.98)" style="fill: #fff"/>
      <rect x="232.53" y="122.3" width="29.13" height="1.27" style="fill: #fff"/>
      <polygon points="223.78 95.46 228.56 90.59 227.67 89.7 222.88 94.56 223.78 95.46" style="fill: #fff"/>
      <rect x="227.67" y="89.7" width="29.13" height="1.27" style="fill: #fff"/>
      <rect x="258.13" y="115.07" width="20.98" height="1.27" transform="translate(-3.14 223.82) rotate(-45)" style="fill: #fff"/>
      <polygon points="212.24 201.95 217.02 197.09 216.13 196.19 211.34 201.06 212.24 201.95" style="fill: #fff"/>
      <polygon points="219.64 197.21 224.43 192.34 223.53 191.45 218.75 196.31 219.64 197.21" style="fill: #fff"/>
      <polygon points="184.65 202.09 189.44 197.22 188.54 196.33 183.76 201.19 184.65 202.09" style="fill: #fff"/>
      <polygon points="281.76 163.39 286.54 158.53 285.65 157.63 280.86 162.5 281.76 163.39" style="fill: #fff"/>
      <rect x="216.13" y="196.19" width="29.13" height="1.27" style="fill: #fff"/>
      <rect x="207.81" y="67.77" width="20.98" height="1.27" transform="translate(15.57 174.39) rotate(-45)" style="fill: #fff"/>
      <rect x="193.33" y="116.3" width="12.49" height="1.27" transform="translate(-24.21 175.46) rotate(-45.02)" style="fill: #fff"/>
      <rect x="241.17" y="130.96" width="12.49" height="1.27" transform="translate(-20.55 213.59) rotate(-45.02)" style="fill: #fff"/>
      <rect x="246.55" y="149.46" width="12.49" height="1.27" transform="translate(-32.06 222.82) rotate(-45.02)" style="fill: #fff"/>
      <rect x="266.17" y="137.36" width="12.49" height="1.26" transform="translate(-17.75 233.17) rotate(-45.03)" style="fill: #fff"/>
      <rect x="293.86" y="169.57" width="12.49" height="1.27" transform="translate(-32.4 262.22) rotate(-45.03)" style="fill: #fff"/>
      <rect x="255.84" y="106.91" width="6.24" height="1.27" transform="translate(-0.14 214.74) rotate(-45.03)" style="fill: #fff"/>
      <rect x="219.48" y="85.45" width="6.24" height="1.27" transform="translate(4.38 182.72) rotate(-45.03)" style="fill: #fff"/>
      <rect x="180.23" y="61.37" width="6.24" height="1.27" transform="translate(9.89 147.86) rotate(-45.02)" style="fill: #fff"/>
      <rect x="113.96" y="89.9" width="6.24" height="1.27" transform="translate(-29.72 109.36) rotate(-45.02)" style="fill: #fff"/>
      <rect x="147.25" y="58.91" width="6.24" height="1.27" transform="translate(1.97 123.82) rotate(-45.02)" style="fill: #fff"/>
      <rect x="120.22" y="73.78" width="6.24" height="1.27" transform="translate(-16.48 109.06) rotate(-45.02)" style="fill: #fff"/>
      <rect x="278.33" y="133.37" width="6.24" height="1.27" transform="translate(-12.27 238.41) rotate(-45.03)" style="fill: #fff"/>
      <rect x="166.59" y="89.78" width="26.44" height="1.27" transform="translate(-11.25 153.66) rotate(-45.01)" style="fill: #fff"/>
      <polygon points="199.01 56.06 187.82 44.97 188.72 44.08 199.91 55.16 199.01 56.06" style="fill: #fff"/>
      <rect x="176.89" y="63.45" width="26.44" height="1.27" transform="translate(10.39 153.23) rotate(-45.01)" style="fill: #fff"/>
      <rect x="218.47" y="80.1" width="1.27" height="12.69" transform="translate(2.96 180.05) rotate(-44.95)" style="fill: #fff"/>
      <rect x="223.4" y="65.73" width="1.27" height="12.69" transform="translate(14.56 179.34) rotate(-44.95)" style="fill: #fff"/>
      <rect x="214.74" y="93.32" width="1.27" height="12.69" transform="translate(-7.47 181.27) rotate(-44.95)" style="fill: #fff"/>
      <rect x="242.3" y="107.65" width="1.27" height="12.69" transform="translate(-9.54 204.93) rotate(-44.95)" style="fill: #fff"/>
      <rect x="254.53" y="76.54" width="1.27" height="12.69" transform="translate(16.03 204.5) rotate(-44.95)" style="fill: #fff"/>
      <rect x="197" y="67.62" width="1.27" height="12.69" transform="translate(5.5 161.23) rotate(-44.95)" style="fill: #fff"/>
      <rect x="180.35" y="57.91" width="1.27" height="12.69" transform="translate(7.5 146.64) rotate(-44.95)" style="fill: #fff"/>
      <rect x="174.92" y="43.6" width="1.26" height="12.69" transform="translate(16.02 138.61) rotate(-44.95)" style="fill: #fff"/>
      <rect x="165.38" y="95.27" width="1.27" height="12.69" transform="translate(-23.27 146.97) rotate(-44.95)" style="fill: #fff"/>
      <rect x="118.05" y="56.35" width="1.27" height="12.69" transform="translate(-9.61 102.16) rotate(-44.95)" style="fill: #fff"/>
      <rect x="139.82" y="45.16" width="1.27" height="12.69" transform="translate(4.66 114.29) rotate(-44.95)" style="fill: #fff"/>
      <rect x="222.77" y="90.47" width="1.27" height="31.32" style="fill: #fff"/>
      <rect x="210.44" y="75.35" width="1.27" height="20.24" style="fill: #fff"/>
      <rect x="227.37" y="109.24" width="1.26" height="23.74" style="fill: #fff"/>
      <rect x="246.78" y="99.2" width="1.27" height="23.74" style="fill: #fff"/>
      <rect x="225.99" y="104.66" width="12.49" height="1.27" transform="translate(-6.39 195.16) rotate(-45.03)" style="fill: #fff"/>
      <rect x="273.29" y="126.54" width="12.49" height="1.27" transform="translate(-8 235.03) rotate(-45.03)" style="fill: #fff"/>
      <rect x="254.52" y="85.47" width="12.49" height="1.27" transform="translate(15.55 209.71) rotate(-45.03)" style="fill: #fff"/>
      <rect x="196.97" y="136.54" width="23.9" height="1.26" transform="translate(-35.83 187.78) rotate(-44.97)" style="fill: #fff"/>
      <rect x="210.52" y="107.62" width="11.86" height="1.27" transform="translate(-13.21 184.57) rotate(-44.95)" style="fill: #fff"/>
      <polygon points="126.33 119.29 116.27 109.18 117.17 108.29 127.22 118.39 126.33 119.29" style="fill: #fff"/>
      <rect x="106.37" y="125.78" width="23.9" height="1.27" transform="translate(-54.73 120.61) rotate(-44.97)" style="fill: #fff"/>
      <rect x="98.92" y="123.93" width="23.9" height="1.27" transform="translate(-55.6 114.81) rotate(-44.98)" style="fill: #fff"/>
      <polygon points="90.76 127.85 80.62 137.94 81.51 138.83 91.66 128.74 90.76 127.85" style="fill: #fff"/>
      <polygon points="100.15 137.8 94.41 143.47 95.31 144.37 101.04 138.7 100.15 137.8" style="fill: #fff"/>
      <polygon points="101.99 150.7 96.25 156.37 97.15 157.26 102.89 151.59 101.99 150.7" style="fill: #fff"/>
      <polygon points="102.55 110.2 96.81 115.87 97.71 116.76 103.44 111.09 102.55 110.2" style="fill: #fff"/>
      <polygon points="71.07 141.07 60.93 151.16 61.82 152.06 71.97 141.97 71.07 141.07" style="fill: #fff"/>
      <rect x="125.86" y="168.24" width="29.13" height="1.26" style="fill: #fff"/>
      <rect x="118.26" y="151.16" width="1.27" height="20.98" transform="translate(-79.48 131.42) rotate(-45)" style="fill: #fff"/>
      <rect x="57.4" y="151.03" width="29.13" height="1.26" style="fill: #fff"/>
      <rect x="49.8" y="133.94" width="1.27" height="20.98" transform="translate(-87.36 77.97) rotate(-45)" style="fill: #fff"/>
      <rect x="88.77" y="71.17" width="1.27" height="20.98" transform="translate(-31.56 87.14) rotate(-45)" style="fill: #fff"/>
      <rect x="175.86" y="133.5" width="1.27" height="80.03" style="fill: #fff"/>
      <rect x="180.63" y="125.63" width="1.27" height="38.32" style="fill: #fff"/>
      <rect x="180.94" y="218.07" width="1.26" height="41.96" style="fill: #fff"/>
      <polygon points="178.19 221.13 172.73 215.69 173.63 214.8 179.08 220.23 178.19 221.13" style="fill: #fff"/>
      <rect x="177.82" y="220.23" width="1.27" height="129.77" style="fill: #fff"/>
      <polygon points="209.85 252.37 204.4 246.93 205.29 246.04 210.75 251.47 209.85 252.37" style="fill: #fff"/>
      <polygon points="202.24 327.05 196.78 321.62 197.68 320.73 203.13 326.16 202.24 327.05" style="fill: #fff"/>
      <polygon points="171.72 310.93 166.27 305.5 167.16 304.61 172.62 310.04 171.72 310.93" style="fill: #fff"/>
      <rect x="209.49" y="251.47" width="1.26" height="53.07" style="fill: #fff"/>
      <rect x="204.4" y="246.93" width="1.27" height="18.46" style="fill: #fff"/>
      <rect x="202.19" y="212.59" width="1.26" height="20.24" style="fill: #fff"/>
      <rect x="133.15" y="118.67" width="29.13" height="1.27" style="fill: #fff"/>
      <rect x="168.63" y="116.04" width="1.27" height="20.98" transform="translate(-39.9 156.74) rotate(-45)" style="fill: #fff"/>
      <rect x="74.75" y="188.26" width="29.13" height="1.27" style="fill: #fff"/>
      <rect x="67.15" y="171.18" width="1.27" height="20.98" transform="translate(-108.6 101.13) rotate(-45)" style="fill: #fff"/>
      <rect x="37.04" y="139.83" width="1.26" height="20.98" transform="translate(-95.26 70.67) rotate(-45)" style="fill: #fff"/>
      <rect x="125.55" y="101.58" width="1.27" height="20.98" transform="translate(-42.29 122.05) rotate(-45)" style="fill: #fff"/>
      <rect x="89.76" y="115.67" width="29.13" height="1.27" style="fill: #fff"/>
      <rect x="96.37" y="88.25" width="14.95" height="1.27" style="fill: #fff"/>
      <polygon points="89.76 116.93 81.45 108.64 82.34 107.75 90.66 116.04 89.76 116.93" style="fill: #fff"/>
      <rect x="114.39" y="86.98" width="1.27" height="11.74" transform="translate(-31.94 108.73) rotate(-45.08)" style="fill: #fff"/>
    </g>
    <g id="Layer_3" data-name="Layer 3">
      <path d="M138,47a1.93,1.93,0,1,1-1.93-1.94A1.92,1.92,0,0,1,138,47Z" transform="translate(0 0)" style="fill: #fff"/>
      <path d="M104.52,132.87a1.93,1.93,0,1,1-1.93-1.93A1.92,1.92,0,0,1,104.52,132.87Z" transform="translate(0 0)" style="fill: #fff"/>
      <path d="M97.08,143.92A1.93,1.93,0,1,1,95.15,142,1.93,1.93,0,0,1,97.08,143.92Z" transform="translate(0 0)" style="fill: #fff"/>
      <path d="M105.1,150.35a1.93,1.93,0,1,1-1.93-1.93A1.92,1.92,0,0,1,105.1,150.35Z" transform="translate(0 0)" style="fill: #fff"/>
      <path d="M105.66,109.85a1.94,1.94,0,1,1-1.93-1.93A1.93,1.93,0,0,1,105.66,109.85Z" transform="translate(0 0)" style="fill: #fff"/>
      <path d="M83.12,138.16a1.93,1.93,0,1,1-1.93-1.93A1.92,1.92,0,0,1,83.12,138.16Z" transform="translate(0 0)" style="fill: #fff"/>
      <path d="M45.05,137A1.94,1.94,0,1,1,43.12,135,1.93,1.93,0,0,1,45.05,137Z" transform="translate(0 0)" style="fill: #fff"/>
      <path d="M84.06,108.29a1.93,1.93,0,1,1-1.93-1.93A1.92,1.92,0,0,1,84.06,108.29Z" transform="translate(0 0)" style="fill: #fff"/>
      <path d="M124.39,130.94a1.94,1.94,0,1,1-1.93-1.93A1.94,1.94,0,0,1,124.39,130.94Z" transform="translate(0 0)" style="fill: #fff"/>
      <path d="M128.25,124.65a1.93,1.93,0,1,1-1.93-1.93A1.92,1.92,0,0,1,128.25,124.65Z" transform="translate(0 0)" style="fill: #fff"/>
      <path d="M142.2,111a1.93,1.93,0,1,1-1.93-1.93A1.93,1.93,0,0,1,142.2,111Z" transform="translate(0 0)" style="fill: #fff"/>
      <path d="M60.87,119.86a1.94,1.94,0,1,1-1.94-1.93A1.93,1.93,0,0,1,60.87,119.86Z" transform="translate(0 0)" style="fill: #fff"/>
      <path d="M136.34,102.34a1.94,1.94,0,1,1-1.94-1.93A1.93,1.93,0,0,1,136.34,102.34Z" transform="translate(0 0)" style="fill: #fff"/>
      <path d="M241.21,81.35a1.93,1.93,0,1,1-1.93-1.93A1.92,1.92,0,0,1,241.21,81.35Z" transform="translate(0 0)" style="fill: #fff"/>
      <circle cx="133.77" cy="74.28" r="1.93" style="fill: #fff"/>
      <path d="M101.42,74.12a1.93,1.93,0,1,1-1.93-1.93A1.92,1.92,0,0,1,101.42,74.12Z" transform="translate(0 0)" style="fill: #fff"/>
      <path d="M95.77,102.34a1.94,1.94,0,1,1-1.93-1.93A1.93,1.93,0,0,1,95.77,102.34Z" transform="translate(0 0)" style="fill: #fff"/>
      <path d="M83.85,74.19a1.94,1.94,0,1,1-1.94-1.93A1.93,1.93,0,0,1,83.85,74.19Z" transform="translate(0 0)" style="fill: #fff"/>
      <path d="M118.89,109A1.94,1.94,0,1,1,117,107.1,1.93,1.93,0,0,1,118.89,109Z" transform="translate(0 0)" style="fill: #fff"/>
      <path d="M169,110.34a1.93,1.93,0,1,1-1.93-1.93A1.92,1.92,0,0,1,169,110.34Z" transform="translate(0 0)" style="fill: #fff"/>
      <path d="M162,133.5a1.93,1.93,0,1,1-1.93-1.93A1.92,1.92,0,0,1,162,133.5Z" transform="translate(0 0)" style="fill: #fff"/>
      <path d="M233.6,180.21a1.94,1.94,0,1,1-1.93-1.94A1.94,1.94,0,0,1,233.6,180.21Z" transform="translate(0 0)" style="fill: #fff"/>
      <path d="M234.68,233.38a1.93,1.93,0,1,1-1.93-1.93A1.92,1.92,0,0,1,234.68,233.38Z" transform="translate(0 0)" style="fill: #fff"/>
      <path d="M164.21,97.61a1.93,1.93,0,1,1-1.93-1.93A1.92,1.92,0,0,1,164.21,97.61Z" transform="translate(0 0)" style="fill: #fff"/>
      <path d="M116.89,58.69A1.94,1.94,0,1,1,115,56.76,1.92,1.92,0,0,1,116.89,58.69Z" transform="translate(0 0)" style="fill: #fff"/>
      <path d="M167.69,80.61a1.94,1.94,0,1,1-1.93-1.93A1.93,1.93,0,0,1,167.69,80.61Z" transform="translate(0 0)" style="fill: #fff"/>
      <path d="M177.79,78.68a1.94,1.94,0,1,1-1.93-1.94A1.93,1.93,0,0,1,177.79,78.68Z" transform="translate(0 0)" style="fill: #fff"/>
      <path d="M197.28,89.44a1.94,1.94,0,1,1-1.93-1.93A1.93,1.93,0,0,1,197.28,89.44Z" transform="translate(0 0)" style="fill: #fff"/>
      <path d="M190.31,99.67a1.93,1.93,0,1,1-1.93-1.94A1.93,1.93,0,0,1,190.31,99.67Z" transform="translate(0 0)" style="fill: #fff"/>
      <path d="M208.73,119a1.94,1.94,0,1,1-1.93-1.93A1.93,1.93,0,0,1,208.73,119Z" transform="translate(0 0)" style="fill: #fff"/>
      <path d="M186.89,103.3a1.93,1.93,0,1,1-1.93-1.93A1.93,1.93,0,0,1,186.89,103.3Z" transform="translate(0 0)" style="fill: #fff"/>
      <path d="M215.55,147.15a1.94,1.94,0,1,1-1.93-1.93A1.94,1.94,0,0,1,215.55,147.15Z" transform="translate(0 0)" style="fill: #fff"/>
      <path d="M266.31,131.59a1.94,1.94,0,1,1-1.93-1.93A1.94,1.94,0,0,1,266.31,131.59Z" transform="translate(0 0)" style="fill: #fff"/>
      <path d="M277.69,150.27a1.94,1.94,0,1,1-1.94-1.94A1.93,1.93,0,0,1,277.69,150.27Z" transform="translate(0 0)" style="fill: #fff"/>
      <path d="M317,139.94a1.93,1.93,0,1,1-1.93-1.94A1.92,1.92,0,0,1,317,139.94Z" transform="translate(0 0)" style="fill: #fff"/>
      <path d="M208.73,151a1.94,1.94,0,1,1-1.93-1.93A1.93,1.93,0,0,1,208.73,151Z" transform="translate(0 0)" style="fill: #fff"/>
      <path d="M205.67,202.53a1.94,1.94,0,1,1-1.94-1.93A1.94,1.94,0,0,1,205.67,202.53Z" transform="translate(0 0)" style="fill: #fff"/>
      <path d="M202.05,193.78a1.93,1.93,0,1,1-1.93-1.94A1.93,1.93,0,0,1,202.05,193.78Z" transform="translate(0 0)" style="fill: #fff"/>
      <path d="M181.9,173.65a1.94,1.94,0,1,1-1.94-1.93A1.94,1.94,0,0,1,181.9,173.65Z" transform="translate(0 0)" style="fill: #fff"/>
      <path d="M188.91,127.8a1.93,1.93,0,1,1-1.93-1.93A1.92,1.92,0,0,1,188.91,127.8Z" transform="translate(0 0)" style="fill: #fff"/>
      <path d="M219.42,207.22a1.94,1.94,0,1,1-1.94-1.94A1.94,1.94,0,0,1,219.42,207.22Z" transform="translate(0 0)" style="fill: #fff"/>
      <path d="M229.69,211.25a1.93,1.93,0,1,1-1.93-1.93A1.93,1.93,0,0,1,229.69,211.25Z" transform="translate(0 0)" style="fill: #fff"/>
      <path d="M257,198.58a1.94,1.94,0,1,1-1.93-1.94A1.94,1.94,0,0,1,257,198.58Z" transform="translate(0 0)" style="fill: #fff"/>
      <path d="M279.5,192.06a1.94,1.94,0,1,1-1.94-1.93A1.94,1.94,0,0,1,279.5,192.06Z" transform="translate(0 0)" style="fill: #fff"/>
      <path d="M244.13,215.65a1.94,1.94,0,1,1-1.93-1.94A1.94,1.94,0,0,1,244.13,215.65Z" transform="translate(0 0)" style="fill: #fff"/>
      <path d="M239.28,184.19a1.94,1.94,0,1,1-1.94-1.93A1.93,1.93,0,0,1,239.28,184.19Z" transform="translate(0 0)" style="fill: #fff"/>
      <path d="M313.93,173.23A1.94,1.94,0,1,1,312,171.3,1.94,1.94,0,0,1,313.93,173.23Z" transform="translate(0 0)" style="fill: #fff"/>
      <path d="M249.82,180.34a1.94,1.94,0,1,1-1.94-1.93A1.94,1.94,0,0,1,249.82,180.34Z" transform="translate(0 0)" style="fill: #fff"/>
      <path d="M259.61,213a1.93,1.93,0,1,1-1.93-1.93A1.92,1.92,0,0,1,259.61,213Z" transform="translate(0 0)" style="fill: #fff"/>
      <path d="M235,188.2a1.94,1.94,0,1,1-1.93-1.93A1.93,1.93,0,0,1,235,188.2Z" transform="translate(0 0)" style="fill: #fff"/>
      <path d="M297.43,141.89a1.94,1.94,0,1,1-1.94-1.93A1.94,1.94,0,0,1,297.43,141.89Z" transform="translate(0 0)" style="fill: #fff"/>
      <path d="M218.53,161.6a1.94,1.94,0,1,1-1.94-1.93A1.93,1.93,0,0,1,218.53,161.6Z" transform="translate(0 0)" style="fill: #fff"/>
      <path d="M260.6,155.51a1.94,1.94,0,1,1-1.93-1.93A1.94,1.94,0,0,1,260.6,155.51Z" transform="translate(0 0)" style="fill: #fff"/>
      <path d="M273.51,184.75a1.94,1.94,0,1,1-1.93-1.94A1.94,1.94,0,0,1,273.51,184.75Z" transform="translate(0 0)" style="fill: #fff"/>
      <circle cx="231.93" cy="141.22" r="1.93" style="fill: #fff"/>
      <path d="M180.46,104.05a1.93,1.93,0,1,1-1.93-1.93A1.92,1.92,0,0,1,180.46,104.05Z" transform="translate(0 0)" style="fill: #fff"/>
      <path d="M192.13,92.15a1.93,1.93,0,1,1-1.93-1.93A1.93,1.93,0,0,1,192.13,92.15Z" transform="translate(0 0)" style="fill: #fff"/>
      <path d="M245.38,135.78a1.94,1.94,0,1,1-1.94-1.93A1.94,1.94,0,0,1,245.38,135.78Z" transform="translate(0 0)" style="fill: #fff"/>
      <path d="M250.76,154.28a1.94,1.94,0,1,1-1.93-1.93A1.93,1.93,0,0,1,250.76,154.28Z" transform="translate(0 0)" style="fill: #fff"/>
      <path d="M270.38,142.19a1.94,1.94,0,1,1-1.93-1.94A1.94,1.94,0,0,1,270.38,142.19Z" transform="translate(0 0)" style="fill: #fff"/>
      <path d="M298.07,174.39a1.94,1.94,0,1,1-1.93-1.93A1.93,1.93,0,0,1,298.07,174.39Z" transform="translate(0 0)" style="fill: #fff"/>
      <path d="M234.46,115.7a1.94,1.94,0,1,1-1.93-1.93A1.94,1.94,0,0,1,234.46,115.7Z" transform="translate(0 0)" style="fill: #fff"/>
      <path d="M253.84,116.25a1.94,1.94,0,1,1-1.94-1.93A1.94,1.94,0,0,1,253.84,116.25Z" transform="translate(0 0)" style="fill: #fff"/>
      <path d="M305.63,140.59a1.93,1.93,0,1,1-1.93-1.93A1.92,1.92,0,0,1,305.63,140.59Z" transform="translate(0 0)" style="fill: #fff"/>
      <path d="M217,248a1.93,1.93,0,1,1-1.93-1.93A1.92,1.92,0,0,1,217,248Z" transform="translate(0 0)" style="fill: #fff"/>
      <path d="M183.05,212.48a1.93,1.93,0,1,1-2-1.82A1.93,1.93,0,0,1,183.05,212.48Z" transform="translate(0 0)" style="fill: #fff"/>
      <path d="M183.5,259.91a1.93,1.93,0,1,1-2-1.81A1.93,1.93,0,0,1,183.5,259.91Z" transform="translate(0 0)" style="fill: #fff"/>
      <path d="M175.27,215.45a1.93,1.93,0,0,1-3.86.23,1.93,1.93,0,1,1,3.86-.23Z" transform="translate(0 0)" style="fill: #fff"/>
      <path d="M175.5,250.67a1.93,1.93,0,1,1-2.05-1.82A1.93,1.93,0,0,1,175.5,250.67Z" transform="translate(0 0)" style="fill: #fff"/>
      <path d="M173.88,294.76a1.93,1.93,0,1,1-2-1.82A1.93,1.93,0,0,1,173.88,294.76Z" transform="translate(0 0)" style="fill: #fff"/>
      <path d="M175.5,224.09a1.93,1.93,0,1,1-2.05-1.82A1.93,1.93,0,0,1,175.5,224.09Z" transform="translate(0 0)" style="fill: #fff"/>
      <path d="M133.5,197.53a1.93,1.93,0,1,1-2.05-1.82A1.93,1.93,0,0,1,133.5,197.53Z" transform="translate(0 0)" style="fill: #fff"/>
      <path d="M121,198.75a1.93,1.93,0,1,1-2-1.82A1.93,1.93,0,0,1,121,198.75Z" transform="translate(0 0)" style="fill: #fff"/>
      <path d="M148.8,196.57a1.93,1.93,0,1,1-2.05-1.81A1.92,1.92,0,0,1,148.8,196.57Z" transform="translate(0 0)" style="fill: #fff"/>
      <path d="M208,145.22a1.93,1.93,0,1,1-1.93-1.93A1.92,1.92,0,0,1,208,145.22Z" transform="translate(0 0)" style="fill: #fff"/>
      <path d="M216.77,82.11a1.93,1.93,0,1,1-1.93-1.94A1.93,1.93,0,0,1,216.77,82.11Z" transform="translate(0 0)" style="fill: #fff"/>
      <path d="M230.57,76.74a1.94,1.94,0,1,1-1.93-1.93A1.94,1.94,0,0,1,230.57,76.74Z" transform="translate(0 0)" style="fill: #fff"/>
      <path d="M175.25,267.61a1.94,1.94,0,1,1-1.94-1.94A1.94,1.94,0,0,1,175.25,267.61Z" transform="translate(0 0)" style="fill: #fff"/>
      <path d="M156.29,151.4a1.94,1.94,0,1,1-1.94-1.93A1.93,1.93,0,0,1,156.29,151.4Z" transform="translate(0 0)" style="fill: #fff"/>
      <path d="M97.86,196.79a1.94,1.94,0,1,1-1.94-1.93A1.93,1.93,0,0,1,97.86,196.79Z" transform="translate(0 0)" style="fill: #fff"/>
      <path d="M101.24,228.84a1.93,1.93,0,1,1-1.93-1.93A1.92,1.92,0,0,1,101.24,228.84Z" transform="translate(0 0)" style="fill: #fff"/>
      <path d="M124.65,232.38a1.94,1.94,0,1,1-1.94-1.94A1.94,1.94,0,0,1,124.65,232.38Z" transform="translate(0 0)" style="fill: #fff"/>
      <path d="M122.68,145.86a1.94,1.94,0,1,1-1.93-1.94A1.94,1.94,0,0,1,122.68,145.86Z" transform="translate(0 0)" style="fill: #fff"/>
      <path d="M115.67,146.33a1.94,1.94,0,1,1-1.94-1.93A1.94,1.94,0,0,1,115.67,146.33Z" transform="translate(0 0)" style="fill: #fff"/>
      <path d="M103.91,84.89A1.93,1.93,0,1,1,102,83,1.92,1.92,0,0,1,103.91,84.89Z" transform="translate(0 0)" style="fill: #fff"/>
      <path d="M102.18,179.82a1.93,1.93,0,1,1-1.93-1.93A1.93,1.93,0,0,1,102.18,179.82Z" transform="translate(0 0)" style="fill: #fff"/>
      <path d="M58.77,190.34a1.94,1.94,0,1,1-1.93-1.94A1.94,1.94,0,0,1,58.77,190.34Z" transform="translate(0 0)" style="fill: #fff"/>
      <path d="M152,173.52a1.93,1.93,0,1,1-1.93-1.93A1.93,1.93,0,0,1,152,173.52Z" transform="translate(0 0)" style="fill: #fff"/>
      <path d="M149.2,190.93a1.94,1.94,0,1,1-1.93-1.93A1.94,1.94,0,0,1,149.2,190.93Z" transform="translate(0 0)" style="fill: #fff"/>
      <path d="M148.89,160.46a1.94,1.94,0,1,1-1.93-1.94A1.94,1.94,0,0,1,148.89,160.46Z" transform="translate(0 0)" style="fill: #fff"/>
      <path d="M58.13,132.69a1.94,1.94,0,1,1-1.94-1.94A1.94,1.94,0,0,1,58.13,132.69Z" transform="translate(0 0)" style="fill: #fff"/>
      <path d="M118,170.83a1.94,1.94,0,1,1-1.93-1.94A1.94,1.94,0,0,1,118,170.83Z" transform="translate(0 0)" style="fill: #fff"/>
      <path d="M126.49,190a1.93,1.93,0,1,1-1.93-1.94A1.93,1.93,0,0,1,126.49,190Z" transform="translate(0 0)" style="fill: #fff"/>
      <path d="M130,217a1.93,1.93,0,1,1-1.93-1.93A1.93,1.93,0,0,1,130,217Z" transform="translate(0 0)" style="fill: #fff"/>
      <path d="M80.55,212.17a1.94,1.94,0,1,1-1.93-1.93A1.93,1.93,0,0,1,80.55,212.17Z" transform="translate(0 0)" style="fill: #fff"/>
      <path d="M46.79,163.93A1.94,1.94,0,1,1,44.85,162,1.94,1.94,0,0,1,46.79,163.93Z" transform="translate(0 0)" style="fill: #fff"/>
      <path d="M150.82,139.89a1.93,1.93,0,1,1-1.93-1.93A1.92,1.92,0,0,1,150.82,139.89Z" transform="translate(0 0)" style="fill: #fff"/>
      <path d="M105.11,122a1.94,1.94,0,1,1-1.94-1.93A1.94,1.94,0,0,1,105.11,122Z" transform="translate(0 0)" style="fill: #fff"/>
      <path d="M147.6,135.31a1.94,1.94,0,1,1-1.94-1.93A1.93,1.93,0,0,1,147.6,135.31Z" transform="translate(0 0)" style="fill: #fff"/>
      <path d="M94.41,137.81a1.91,1.91,0,1,1-1.91-1.9A1.91,1.91,0,0,1,94.41,137.81Z" transform="translate(0 0)" style="fill: #fff"/>
      <path d="M70.34,121.88a1.91,1.91,0,1,1-1.91-1.9A1.91,1.91,0,0,1,70.34,121.88Z" transform="translate(0 0)" style="fill: #fff"/>
      <path d="M134.89,130a1.93,1.93,0,1,1-1.93-1.93A1.93,1.93,0,0,1,134.89,130Z" transform="translate(0 0)" style="fill: #fff"/>
      <path d="M148.52,211.47A2.49,2.49,0,1,1,151,209,2.49,2.49,0,0,1,148.52,211.47Zm0-3.86a1.37,1.37,0,1,0,1.37,1.37A1.37,1.37,0,0,0,148.52,207.61Z" transform="translate(0 0)" style="fill: #fff"/>
      <path d="M156.08,197.77a2.49,2.49,0,1,1,2.49-2.49A2.5,2.5,0,0,1,156.08,197.77Zm0-3.86a1.37,1.37,0,1,0,1.37,1.37A1.37,1.37,0,0,0,156.08,193.91Z" transform="translate(0 0)" style="fill: #fff"/>
      <path d="M135.67,215.57a2.49,2.49,0,1,1,2.49-2.49A2.5,2.5,0,0,1,135.67,215.57Zm0-3.87a1.38,1.38,0,1,0,1.37,1.38A1.37,1.37,0,0,0,135.67,211.7Z" transform="translate(0 0)" style="fill: #fff"/>
      <path d="M137.19,238.63a2.49,2.49,0,1,1,2.49-2.49A2.49,2.49,0,0,1,137.19,238.63Zm0-3.86a1.37,1.37,0,1,0,1.37,1.37A1.37,1.37,0,0,0,137.19,234.77Z" transform="translate(0 0)" style="fill: #fff"/>
      <path d="M78.15,222.05a2.49,2.49,0,1,1,2.49-2.49A2.49,2.49,0,0,1,78.15,222.05Zm0-3.86a1.38,1.38,0,1,0,1.37,1.37A1.38,1.38,0,0,0,78.15,218.19Z" transform="translate(0 0)" style="fill: #fff"/>
      <path d="M109.32,195.92a2.5,2.5,0,1,1,2.5-2.49A2.5,2.5,0,0,1,109.32,195.92Zm0-3.87a1.38,1.38,0,1,0,1.38,1.38A1.38,1.38,0,0,0,109.32,192.05Z" transform="translate(0 0)" style="fill: #fff"/>
      <path d="M80.88,202.56a2.5,2.5,0,1,1,2.49-2.5A2.49,2.49,0,0,1,80.88,202.56Zm0-3.87a1.38,1.38,0,1,0,1.37,1.37A1.37,1.37,0,0,0,80.88,198.69Z" transform="translate(0 0)" style="fill: #fff"/>
      <path d="M94.63,180a2.49,2.49,0,1,1,2.49-2.49A2.5,2.5,0,0,1,94.63,180Zm0-3.86A1.37,1.37,0,1,0,96,177.49,1.37,1.37,0,0,0,94.63,176.12Z" transform="translate(0 0)" style="fill: #fff"/>
      <path d="M80.79,175.11a2.5,2.5,0,1,1,2.49-2.49A2.5,2.5,0,0,1,80.79,175.11Zm0-3.87a1.38,1.38,0,1,0,1.37,1.38A1.38,1.38,0,0,0,80.79,171.24Z" transform="translate(0 0)" style="fill: #fff"/>
      <path d="M72,173.23a2.49,2.49,0,1,1,2.49-2.49A2.49,2.49,0,0,1,72,173.23Zm0-3.86a1.37,1.37,0,1,0,1.37,1.37A1.37,1.37,0,0,0,72,169.37Z" transform="translate(0 0)" style="fill: #fff"/>
      <path d="M58.73,165.2a2.49,2.49,0,1,1,2.49-2.49A2.49,2.49,0,0,1,58.73,165.2Zm0-3.87a1.38,1.38,0,1,0,1.37,1.38A1.38,1.38,0,0,0,58.73,161.33Z" transform="translate(0 0)" style="fill: #fff"/>
      <path d="M31,168.29a2.49,2.49,0,1,1,2.49-2.49A2.5,2.5,0,0,1,31,168.29Zm0-3.86a1.37,1.37,0,1,0,1.37,1.37A1.37,1.37,0,0,0,31,164.43Z" transform="translate(0 0)" style="fill: #fff"/>
      <path d="M50,187.8a2.49,2.49,0,1,1,2.49-2.49A2.5,2.5,0,0,1,50,187.8Zm0-3.86a1.37,1.37,0,1,0,1.38,1.37A1.37,1.37,0,0,0,50,183.94Z" transform="translate(0 0)" style="fill: #fff"/>
      <path d="M60.08,221a2.49,2.49,0,1,1,2.49-2.49A2.49,2.49,0,0,1,60.08,221Zm0-3.86a1.37,1.37,0,1,0,1.37,1.37A1.37,1.37,0,0,0,60.08,217.11Z" transform="translate(0 0)" style="fill: #fff"/>
      <path d="M79.48,158.32a2.5,2.5,0,1,1,2.5-2.49A2.5,2.5,0,0,1,79.48,158.32Zm0-3.87a1.38,1.38,0,1,0,1.38,1.38A1.38,1.38,0,0,0,79.48,154.45Z" transform="translate(0 0)" style="fill: #fff"/>
      <path d="M230,167.86a2.5,2.5,0,1,1,2.49-2.5A2.5,2.5,0,0,1,230,167.86Zm0-3.87a1.38,1.38,0,1,0,1.37,1.37A1.38,1.38,0,0,0,230,164Z" transform="translate(0 0)" style="fill: #fff"/>
      <path d="M229.44,160.13a2.49,2.49,0,1,1,2.49-2.49A2.5,2.5,0,0,1,229.44,160.13Zm0-3.87a1.38,1.38,0,1,0,1.38,1.38A1.37,1.37,0,0,0,229.44,156.26Z" transform="translate(0 0)" style="fill: #fff"/>
      <path d="M274.39,174.23a2.49,2.49,0,1,1,2.49-2.49A2.49,2.49,0,0,1,274.39,174.23Zm0-3.86a1.38,1.38,0,1,0,1.37,1.37A1.37,1.37,0,0,0,274.39,170.37Z" transform="translate(0 0)" style="fill: #fff"/>
      <path d="M176.84,72.12a2.5,2.5,0,1,1,2.49-2.49A2.49,2.49,0,0,1,176.84,72.12Zm0-3.87a1.38,1.38,0,1,0,1.37,1.38A1.38,1.38,0,0,0,176.84,68.25Z" transform="translate(0 0)" style="fill: #fff"/>
      <path d="M156.87,69.14a2.5,2.5,0,1,1,2.49-2.5A2.5,2.5,0,0,1,156.87,69.14Zm0-3.87a1.38,1.38,0,1,0,1.38,1.37A1.37,1.37,0,0,0,156.87,65.27Z" transform="translate(0 0)" style="fill: #fff"/>
      <path d="M148.35,52a2.49,2.49,0,1,1,2.49-2.49A2.5,2.5,0,0,1,148.35,52Zm0-3.86a1.37,1.37,0,1,0,1.37,1.37A1.37,1.37,0,0,0,148.35,48.15Z" transform="translate(0 0)" style="fill: #fff"/>
      <path d="M170,46.57a2.49,2.49,0,1,1,2.49-2.49A2.49,2.49,0,0,1,170,46.57Zm0-3.86a1.38,1.38,0,1,0,1.37,1.37A1.37,1.37,0,0,0,170,42.71Z" transform="translate(0 0)" style="fill: #fff"/>
      <path d="M112.81,99.47A2.49,2.49,0,1,1,115.3,97,2.49,2.49,0,0,1,112.81,99.47Zm0-3.86A1.37,1.37,0,1,0,114.18,97,1.37,1.37,0,0,0,112.81,95.61Z" transform="translate(0 0)" style="fill: #fff"/>
      <path d="M137.55,89.44a2.49,2.49,0,1,1,2.5-2.49A2.5,2.5,0,0,1,137.55,89.44Zm0-3.87A1.38,1.38,0,1,0,138.93,87,1.38,1.38,0,0,0,137.55,85.57Z" transform="translate(0 0)" style="fill: #fff"/>
      <path d="M87.53,144.06a2.5,2.5,0,1,1,2.5-2.49A2.5,2.5,0,0,1,87.53,144.06Zm0-3.87a1.38,1.38,0,1,0,1.38,1.38A1.38,1.38,0,0,0,87.53,140.19Z" transform="translate(0 0)" style="fill: #fff"/>
      <path d="M144,94.59a2.5,2.5,0,1,1,2.49-2.49A2.5,2.5,0,0,1,144,94.59Zm0-3.87a1.38,1.38,0,1,0,1.37,1.38A1.37,1.37,0,0,0,144,90.72Z" transform="translate(0 0)" style="fill: #fff"/>
      <path d="M110,76.47A2.49,2.49,0,1,1,112.44,74,2.5,2.5,0,0,1,110,76.47Zm0-3.87A1.38,1.38,0,1,0,111.33,74,1.37,1.37,0,0,0,110,72.6Z" transform="translate(0 0)" style="fill: #fff"/>
      <path d="M134.18,58.74a2.49,2.49,0,1,1,2.49-2.49A2.49,2.49,0,0,1,134.18,58.74Zm0-3.86a1.38,1.38,0,1,0,1.37,1.37A1.37,1.37,0,0,0,134.18,54.88Z" transform="translate(0 0)" style="fill: #fff"/>
      <path d="M161.24,143.15a2.5,2.5,0,1,1,2.5-2.5A2.5,2.5,0,0,1,161.24,143.15Zm0-3.87a1.38,1.38,0,1,0,1.38,1.37A1.38,1.38,0,0,0,161.24,139.28Z" transform="translate(0 0)" style="fill: #fff"/>
      <path d="M136.54,157.77a2.5,2.5,0,1,1,2.49-2.49A2.5,2.5,0,0,1,136.54,157.77Zm0-3.87a1.38,1.38,0,1,0,1.38,1.38A1.37,1.37,0,0,0,136.54,153.9Z" transform="translate(0 0)" style="fill: #fff"/>
      <path d="M124.26,158.32a2.5,2.5,0,1,1,2.49-2.49A2.5,2.5,0,0,1,124.26,158.32Zm0-3.87a1.38,1.38,0,1,0,1.38,1.38A1.37,1.37,0,0,0,124.26,154.45Z" transform="translate(0 0)" style="fill: #fff"/>
      <path d="M58.62,146.93a2.49,2.49,0,1,1,2.49-2.49A2.5,2.5,0,0,1,58.62,146.93Zm0-3.87A1.38,1.38,0,1,0,60,144.44,1.38,1.38,0,0,0,58.62,143.06Z" transform="translate(0 0)" style="fill: #fff"/>
      <path d="M161.2,164.69a2.49,2.49,0,1,1,2.49-2.49A2.5,2.5,0,0,1,161.2,164.69Zm0-3.87a1.38,1.38,0,1,0,1.37,1.38A1.38,1.38,0,0,0,161.2,160.82Z" transform="translate(0 0)" style="fill: #fff"/>
      <path d="M170.24,140a2.49,2.49,0,1,1,2.49-2.49A2.5,2.5,0,0,1,170.24,140Zm0-3.87a1.38,1.38,0,1,0,1.37,1.38A1.38,1.38,0,0,0,170.24,136.12Z" transform="translate(0 0)" style="fill: #fff"/>
      <path d="M181.27,168.24a2.49,2.49,0,1,1,2.49-2.49A2.49,2.49,0,0,1,181.27,168.24Zm0-3.86a1.38,1.38,0,1,0,1.37,1.37A1.37,1.37,0,0,0,181.27,164.38Z" transform="translate(0 0)" style="fill: #fff"/>
      <path d="M159.05,115.63a2.49,2.49,0,1,1,2.49-2.49A2.49,2.49,0,0,1,159.05,115.63Zm0-3.86a1.37,1.37,0,1,0,1.37,1.37A1.37,1.37,0,0,0,159.05,111.77Z" transform="translate(0 0)" style="fill: #fff"/>
      <path d="M181.13,112.48a2.49,2.49,0,1,1,2.49-2.49A2.5,2.5,0,0,1,181.13,112.48Zm0-3.86a1.37,1.37,0,1,0,1.38,1.37A1.37,1.37,0,0,0,181.13,108.62Z" transform="translate(0 0)" style="fill: #fff"/>
      <path d="M205.2,114a2.49,2.49,0,1,1,2.49-2.49A2.48,2.48,0,0,1,205.2,114Zm0-3.86a1.37,1.37,0,1,0,1.37,1.37A1.37,1.37,0,0,0,205.2,110.12Z" transform="translate(0 0)" style="fill: #fff"/>
      <path d="M226.7,62.06a2.49,2.49,0,1,1,2.5-2.49A2.5,2.5,0,0,1,226.7,62.06Zm0-3.86a1.37,1.37,0,1,0,1.38,1.37A1.37,1.37,0,0,0,226.7,58.2Z" transform="translate(0 0)" style="fill: #fff"/>
      <path d="M238.21,102a2.5,2.5,0,1,1,2.49-2.49A2.5,2.5,0,0,1,238.21,102Zm0-3.87a1.38,1.38,0,1,0,1.37,1.38A1.38,1.38,0,0,0,238.21,98.12Z" transform="translate(0 0)" style="fill: #fff"/>
      <path d="M237.34,110.75a2.5,2.5,0,1,1,2.5-2.5A2.5,2.5,0,0,1,237.34,110.75Zm0-3.87a1.38,1.38,0,1,0,1.38,1.37A1.38,1.38,0,0,0,237.34,106.88Z" transform="translate(0 0)" style="fill: #fff"/>
      <path d="M249.58,79.63a2.49,2.49,0,1,1,2.49-2.49A2.49,2.49,0,0,1,249.58,79.63Zm0-3.86a1.38,1.38,0,0,0,0,2.75,1.38,1.38,0,1,0,0-2.75Z" transform="translate(0 0)" style="fill: #fff"/>
      <path d="M244.92,163a2.49,2.49,0,1,1,2.49-2.49A2.5,2.5,0,0,1,244.92,163Zm0-3.87a1.38,1.38,0,1,0,1.38,1.38A1.38,1.38,0,0,0,244.92,159.14Z" transform="translate(0 0)" style="fill: #fff"/>
      <path d="M277.49,109.39a2.49,2.49,0,1,1,2.5-2.49A2.49,2.49,0,0,1,277.49,109.39Zm0-3.86a1.37,1.37,0,1,0,1.38,1.37A1.37,1.37,0,0,0,277.49,105.53Z" transform="translate(0 0)" style="fill: #fff"/>
      <path d="M239.84,129.66a2.49,2.49,0,1,1,2.49-2.49A2.5,2.5,0,0,1,239.84,129.66Zm0-3.87a1.38,1.38,0,1,0,1.37,1.38A1.38,1.38,0,0,0,239.84,125.79Z" transform="translate(0 0)" style="fill: #fff"/>
      <path d="M262.34,106.59a2.49,2.49,0,1,1,2.49-2.49A2.49,2.49,0,0,1,262.34,106.59Zm0-3.87a1.38,1.38,0,1,0,0,2.75,1.38,1.38,0,0,0,0-2.75Z" transform="translate(0 0)" style="fill: #fff"/>
      <path d="M226,85.13a2.5,2.5,0,1,1,2.49-2.5A2.5,2.5,0,0,1,226,85.13Zm0-3.87a1.38,1.38,0,1,0,1.37,1.37A1.37,1.37,0,0,0,226,81.26Z" transform="translate(0 0)" style="fill: #fff"/>
      <path d="M186.73,61.05a2.5,2.5,0,1,1,2.49-2.49A2.5,2.5,0,0,1,186.73,61.05Zm0-3.87a1.38,1.38,0,1,0,1.37,1.38A1.38,1.38,0,0,0,186.73,57.18Z" transform="translate(0 0)" style="fill: #fff"/>
      <path d="M120.45,89.58a2.5,2.5,0,1,1,2.5-2.49A2.5,2.5,0,0,1,120.45,89.58Zm0-3.87a1.38,1.38,0,1,0,1.38,1.38A1.38,1.38,0,0,0,120.45,85.71Z" transform="translate(0 0)" style="fill: #fff"/>
      <path d="M153.75,58.59a2.5,2.5,0,1,1,2.49-2.5A2.5,2.5,0,0,1,153.75,58.59Zm0-3.87a1.38,1.38,0,1,0,1.37,1.37A1.38,1.38,0,0,0,153.75,54.72Z" transform="translate(0 0)" style="fill: #fff"/>
      <path d="M126.72,73.46a2.5,2.5,0,1,1,2.49-2.5A2.5,2.5,0,0,1,126.72,73.46Zm0-3.87A1.38,1.38,0,1,0,128.09,71,1.37,1.37,0,0,0,126.72,69.59Z" transform="translate(0 0)" style="fill: #fff"/>
      <path d="M284.83,133.05a2.5,2.5,0,1,1,2.49-2.49A2.5,2.5,0,0,1,284.83,133.05Zm0-3.87a1.38,1.38,0,1,0,1.37,1.38A1.38,1.38,0,0,0,284.83,129.18Z" transform="translate(0 0)" style="fill: #fff"/>
      <path d="M266.3,82.79a2.49,2.49,0,1,1,2.5-2.49A2.5,2.5,0,0,1,266.3,82.79Zm0-3.87a1.38,1.38,0,1,0,1.38,1.38A1.38,1.38,0,0,0,266.3,78.92Z" transform="translate(0 0)" style="fill: #fff"/>
      <path d="M268.8,102.92a2.49,2.49,0,1,1,2.49-2.49A2.5,2.5,0,0,1,268.8,102.92Zm0-3.87a1.38,1.38,0,1,0,1.37,1.38A1.38,1.38,0,0,0,268.8,99.05Z" transform="translate(0 0)" style="fill: #fff"/>
      <path d="M286.19,145.56a2.5,2.5,0,1,1,2.49-2.49A2.5,2.5,0,0,1,286.19,145.56Zm0-3.87a1.38,1.38,0,1,0,1.38,1.38A1.38,1.38,0,0,0,286.19,141.69Z" transform="translate(0 0)" style="fill: #fff"/>
      <path d="M294.2,136.58a2.5,2.5,0,1,1,2.5-2.49A2.5,2.5,0,0,1,294.2,136.58Zm0-3.87a1.38,1.38,0,1,0,1.38,1.38A1.38,1.38,0,0,0,294.2,132.71Z" transform="translate(0 0)" style="fill: #fff"/>
      <path d="M263.42,154.38a2.49,2.49,0,1,1,2.49-2.49A2.49,2.49,0,0,1,263.42,154.38Zm0-3.86a1.38,1.38,0,1,0,1.37,1.37A1.37,1.37,0,0,0,263.42,150.52Z" transform="translate(0 0)" style="fill: #fff"/>
      <path d="M260.92,177.68a2.49,2.49,0,1,1,2.5-2.49A2.49,2.49,0,0,1,260.92,177.68Zm0-3.86a1.38,1.38,0,1,0,1.38,1.37A1.37,1.37,0,0,0,260.92,173.82Z" transform="translate(0 0)" style="fill: #fff"/>
      <path d="M279.12,183.51a2.49,2.49,0,1,1,2.5-2.49A2.5,2.5,0,0,1,279.12,183.51Zm0-3.87A1.38,1.38,0,1,0,280.5,181,1.38,1.38,0,0,0,279.12,179.64Z" transform="translate(0 0)" style="fill: #fff"/>
      <path d="M262.66,217.93a2.49,2.49,0,1,1,2.49-2.49A2.49,2.49,0,0,1,262.66,217.93Zm0-3.86a1.37,1.37,0,1,0,1.37,1.37A1.37,1.37,0,0,0,262.66,214.07Z" transform="translate(0 0)" style="fill: #fff"/>
      <path d="M295.07,187.43a2.49,2.49,0,1,1,2.5-2.49A2.49,2.49,0,0,1,295.07,187.43Zm0-3.86a1.37,1.37,0,1,0,1.38,1.37A1.37,1.37,0,0,0,295.07,183.57Z" transform="translate(0 0)" style="fill: #fff"/>
      <path d="M278.31,221.93a2.5,2.5,0,1,1,2.49-2.49A2.5,2.5,0,0,1,278.31,221.93Zm0-3.87a1.38,1.38,0,1,0,1.37,1.38A1.38,1.38,0,0,0,278.31,218.06Z" transform="translate(0 0)" style="fill: #fff"/>
      <path d="M260.16,184.53a2.49,2.49,0,1,1,2.5-2.49A2.49,2.49,0,0,1,260.16,184.53Zm0-3.86a1.38,1.38,0,1,0,1.38,1.37A1.37,1.37,0,0,0,260.16,180.67Z" transform="translate(0 0)" style="fill: #fff"/>
      <path d="M236.12,209.22a2.5,2.5,0,1,1,2.5-2.49A2.5,2.5,0,0,1,236.12,209.22Zm0-3.87a1.38,1.38,0,1,0,1.38,1.38A1.38,1.38,0,0,0,236.12,205.35Z" transform="translate(0 0)" style="fill: #fff"/>
      <path d="M223.09,240.94a2.49,2.49,0,1,1,2.5-2.49A2.49,2.49,0,0,1,223.09,240.94Zm0-3.86a1.38,1.38,0,1,0,1.38,1.37A1.37,1.37,0,0,0,223.09,237.08Z" transform="translate(0 0)" style="fill: #fff"/>
      <path d="M112.44,237.77a2.5,2.5,0,1,1,2.5-2.5A2.5,2.5,0,0,1,112.44,237.77Zm0-3.87a1.38,1.38,0,1,0,1.38,1.37A1.38,1.38,0,0,0,112.44,233.9Z" transform="translate(0 0)" style="fill: #fff"/>
      <path d="M225.27,192.94a2.5,2.5,0,1,1,2.49-2.49A2.5,2.5,0,0,1,225.27,192.94Zm0-3.87a1.38,1.38,0,1,0,1.37,1.38A1.37,1.37,0,0,0,225.27,189.07Z" transform="translate(0 0)" style="fill: #fff"/>
      <path d="M190.28,197.81a2.49,2.49,0,1,1,2.49-2.49A2.49,2.49,0,0,1,190.28,197.81Zm0-3.86a1.38,1.38,0,1,0,1.37,1.37A1.37,1.37,0,0,0,190.28,194Z" transform="translate(0 0)" style="fill: #fff"/>
      <path d="M297.57,203.56a2.49,2.49,0,1,1,2.49-2.49A2.5,2.5,0,0,1,297.57,203.56Zm0-3.87a1.38,1.38,0,1,0,1.37,1.38A1.38,1.38,0,0,0,297.57,199.69Z" transform="translate(0 0)" style="fill: #fff"/>
      <path d="M263.81,227.75a2.49,2.49,0,1,1,2.49-2.49A2.5,2.5,0,0,1,263.81,227.75Zm0-3.86a1.37,1.37,0,1,0,1.38,1.37A1.37,1.37,0,0,0,263.81,223.89Z" transform="translate(0 0)" style="fill: #fff"/>
      <path d="M223.4,126.51a2.5,2.5,0,1,1,2.5-2.49A2.5,2.5,0,0,1,223.4,126.51Zm0-3.87a1.38,1.38,0,1,0,1.38,1.38A1.38,1.38,0,0,0,223.4,122.64Z" transform="translate(0 0)" style="fill: #fff"/>
      <path d="M201.74,131.5a2.49,2.49,0,1,1,2.49-2.49A2.49,2.49,0,0,1,201.74,131.5Zm0-3.86a1.38,1.38,0,0,0,0,2.75,1.38,1.38,0,1,0,0-2.75Z" transform="translate(0 0)" style="fill: #fff"/>
      <path d="M213.07,61.47a2.49,2.49,0,1,1,2.5-2.49A2.49,2.49,0,0,1,213.07,61.47Zm0-3.86A1.38,1.38,0,1,0,214.45,59,1.38,1.38,0,0,0,213.07,57.61Z" transform="translate(0 0)" style="fill: #fff"/>
      <path d="M117.79,105.85a2.49,2.49,0,1,1,2.49-2.49A2.5,2.5,0,0,1,117.79,105.85Zm0-3.87a1.38,1.38,0,1,0,1.38,1.38A1.38,1.38,0,0,0,117.79,102Z" transform="translate(0 0)" style="fill: #fff"/>
      <path d="M80.85,102.7a2.5,2.5,0,1,1,2.49-2.49A2.5,2.5,0,0,1,80.85,102.7Zm0-3.87a1.38,1.38,0,1,0,1.37,1.38A1.37,1.37,0,0,0,80.85,98.83Z" transform="translate(0 0)" style="fill: #fff"/>
      <path d="M61.68,107.32a2.49,2.49,0,1,1,2.49-2.49A2.49,2.49,0,0,1,61.68,107.32Zm0-3.86a1.38,1.38,0,1,0,1.37,1.37A1.37,1.37,0,0,0,61.68,103.46Z" transform="translate(0 0)" style="fill: #fff"/>
      <path d="M86.82,126.51A2.5,2.5,0,1,1,89.31,124,2.5,2.5,0,0,1,86.82,126.51Zm0-3.87A1.38,1.38,0,1,0,88.2,124,1.38,1.38,0,0,0,86.82,122.64Z" transform="translate(0 0)" style="fill: #fff"/>
      <path d="M64.48,137.8A2.49,2.49,0,1,1,67,135.31,2.49,2.49,0,0,1,64.48,137.8Zm0-3.86a1.37,1.37,0,1,0,1.37,1.37A1.37,1.37,0,0,0,64.48,133.94Z" transform="translate(0 0)" style="fill: #fff"/>
      <path d="M29.31,144.32a2.5,2.5,0,1,1,2.49-2.5A2.5,2.5,0,0,1,29.31,144.32Zm0-3.87a1.38,1.38,0,1,0,1.37,1.37A1.37,1.37,0,0,0,29.31,140.45Z" transform="translate(0 0)" style="fill: #fff"/>
      <path d="M197.42,190a2.49,2.49,0,1,1,2.49-2.49A2.49,2.49,0,0,1,197.42,190Zm0-3.86a1.38,1.38,0,1,0,1.37,1.37A1.37,1.37,0,0,0,197.42,186.09Z" transform="translate(0 0)" style="fill: #fff"/>
      <path d="M194.92,180.11a2.49,2.49,0,1,1,2.5-2.49A2.49,2.49,0,0,1,194.92,180.11Zm0-3.86a1.38,1.38,0,1,0,1.38,1.37A1.38,1.38,0,0,0,194.92,176.25Z" transform="translate(0 0)" style="fill: #fff"/>
      <path d="M200.2,171.42a2.49,2.49,0,1,1,2.49-2.49A2.49,2.49,0,0,1,200.2,171.42Zm0-3.86a1.38,1.38,0,1,0,1.38,1.37A1.37,1.37,0,0,0,200.2,167.56Z" transform="translate(0 0)" style="fill: #fff"/>
      <path d="M164.83,228.94a2.49,2.49,0,1,1,2.49-2.49A2.49,2.49,0,0,1,164.83,228.94Zm0-3.86a1.38,1.38,0,0,0,0,2.75,1.38,1.38,0,1,0,0-2.75Z" transform="translate(0 0)" style="fill: #fff"/>
      <path d="M144,251.79a2.5,2.5,0,1,1,2.49-2.5A2.49,2.49,0,0,1,144,251.79Zm0-3.87a1.38,1.38,0,1,0,1.37,1.37A1.38,1.38,0,0,0,144,247.92Z" transform="translate(0 0)" style="fill: #fff"/>
      <path d="M205,269.82a2.5,2.5,0,1,1,2.49-2.5A2.5,2.5,0,0,1,205,269.82Zm0-3.87a1.38,1.38,0,1,0,1.38,1.37A1.37,1.37,0,0,0,205,266Z" transform="translate(0 0)" style="fill: #fff"/>
      <path d="M202.82,237.12a2.5,2.5,0,1,1,2.49-2.5A2.5,2.5,0,0,1,202.82,237.12Zm0-3.87a1.38,1.38,0,1,0,1.37,1.37A1.37,1.37,0,0,0,202.82,233.25Z" transform="translate(0 0)" style="fill: #fff"/>
      <path d="M154.09,224.83a2.49,2.49,0,1,1,2.49-2.49A2.49,2.49,0,0,1,154.09,224.83Zm0-3.87a1.38,1.38,0,1,0,1.37,1.38A1.38,1.38,0,0,0,154.09,221Z" transform="translate(0 0)" style="fill: #fff"/>
      <path d="M144.53,297.81a2.49,2.49,0,1,1,2.49-2.49A2.49,2.49,0,0,1,144.53,297.81Zm0-3.86a1.38,1.38,0,1,0,1.37,1.37A1.37,1.37,0,0,0,144.53,294Z" transform="translate(0 0)" style="fill: #fff"/>
      <path d="M86.52,208.69A2.49,2.49,0,1,1,89,206.2,2.5,2.5,0,0,1,86.52,208.69Zm0-3.86a1.37,1.37,0,1,0,1.38,1.37A1.37,1.37,0,0,0,86.52,204.83Z" transform="translate(0 0)" style="fill: #fff"/>
      <path d="M41.44,149.57a2.5,2.5,0,1,1,2.49-2.5A2.5,2.5,0,0,1,41.44,149.57Zm0-3.87a1.38,1.38,0,1,0,1.38,1.37A1.37,1.37,0,0,0,41.44,145.7Z" transform="translate(0 0)" style="fill: #fff"/>
      <path d="M64.14,204.39a2.5,2.5,0,1,1,2.49-2.5A2.5,2.5,0,0,1,64.14,204.39Zm0-3.87a1.38,1.38,0,1,0,1.37,1.37A1.38,1.38,0,0,0,64.14,200.52Z" transform="translate(0 0)" style="fill: #fff"/>
      <path d="M50.16,174.06a2.5,2.5,0,1,1,2.5-2.49A2.5,2.5,0,0,1,50.16,174.06Zm0-3.87a1.38,1.38,0,1,0,1.38,1.38A1.38,1.38,0,0,0,50.16,170.19Z" transform="translate(0 0)" style="fill: #fff"/>
      <path d="M195.25,69.54a1.94,1.94,0,1,1-1.94-1.93A1.93,1.93,0,0,1,195.25,69.54Z" transform="translate(0 0)" style="fill: #fff"/>
      <path d="M178.59,59.83a1.93,1.93,0,1,1-1.93-1.93A1.93,1.93,0,0,1,178.59,59.83Z" transform="translate(0 0)" style="fill: #fff"/>
      <path d="M205.4,40.37a1.94,1.94,0,1,1-1.93-1.93A1.93,1.93,0,0,1,205.4,40.37Z" transform="translate(0 0)" style="fill: #fff"/>
    </g>
    <g id="Layer_4" data-name="Layer 4">
      <polygon points="229.49 298.67 225.12 291.09 229.49 283.51 328.71 283.51 333.09 291.09 328.71 298.67 229.49 298.67" style="fill: #fff"/>
      <path d="M232.44,291.3a2.83,2.83,0,0,1,2.89-2.8,2.92,2.92,0,0,1,1.79.62.26.26,0,0,1,0,.38.29.29,0,0,1-.38.05,2.24,2.24,0,0,0-1.44-.51,2.27,2.27,0,1,0,0,4.53,2.34,2.34,0,0,0,1.44-.49.29.29,0,0,1,.38,0,.28.28,0,0,1-.06.41,2.93,2.93,0,0,1-1.76.59A2.83,2.83,0,0,1,232.44,291.3Z" transform="translate(0 0)" style="fill: #0d344f"/>
      <path d="M241.62,288.5a2.81,2.81,0,1,1-2.67,2.81A2.75,2.75,0,0,1,241.62,288.5Zm0,5.07a2.27,2.27,0,1,0-2.12-2.26A2.2,2.2,0,0,0,241.62,293.57Z" transform="translate(0 0)" style="fill: #0d344f"/>
      <path d="M254.43,290.8a1.76,1.76,0,0,0-1.74-1.75A1.74,1.74,0,0,0,251,290.8v3.09a0,0,0,0,1,0,0v0a.32.32,0,0,1-.13.15l-.14,0h-.08a.15.15,0,0,1-.07,0l0,0,0,0,0,0v0s0,0,0,0a0,0,0,0,0,0,0V290.8a1.73,1.73,0,1,0-3.46,0v3.06a.26.26,0,0,1-.13.22.11.11,0,0,1-.07,0h-.11a.28.28,0,0,1-.23-.2v-5.14a.27.27,0,0,1,.26-.27.27.27,0,0,1,.28.27v.54a2.22,2.22,0,0,1,1.73-.81,2.29,2.29,0,0,1,2,1.2,2.34,2.34,0,0,1,2-1.2A2.28,2.28,0,0,1,255,290.8v3.06a.26.26,0,0,1-.27.26.27.27,0,0,1-.27-.26Z" transform="translate(0 0)" style="fill: #0d344f"/>
      <path d="M257.3,291.4v-2.62a.28.28,0,1,1,.56,0v.81A2.67,2.67,0,0,1,260,288.5a2.8,2.8,0,0,1,0,5.59,2.65,2.65,0,0,1-2.14-1.1v3.21a.28.28,0,0,1-.56,0Zm.56-.11a2.15,2.15,0,1,0,4.29,0,2.15,2.15,0,1,0-4.29-.09Z" transform="translate(0 0)" style="fill: #0d344f"/>
      <path d="M264.76,288.77a.27.27,0,0,1,.27-.28.27.27,0,0,1,.28.28v3.06a1.73,1.73,0,1,0,3.46,0v-3.06a.28.28,0,0,1,.28-.28.27.27,0,0,1,.28.28v3.06a2.29,2.29,0,1,1-4.57,0Z" transform="translate(0 0)" style="fill: #0d344f"/>
      <path d="M273.87,288.78a.3.3,0,0,1-.28.27h-.72v4.1a.44.44,0,0,0,.41.41.32.32,0,0,1,.29.29.3.3,0,0,1-.29.27,1,1,0,0,1-1-1v-4.1h-.7c-.27,0-.27-.14-.27-.27s0-.28.27-.28h.7v-2.09a.3.3,0,0,1,.28-.27.31.31,0,0,1,.3.27v2.09h.72A.3.3,0,0,1,273.87,288.78Z" transform="translate(0 0)" style="fill: #0d344f"/>
      <path d="M275.63,291.32a2.72,2.72,0,0,1,5.44-.2h0v0a.26.26,0,0,1-.27.26h-4.62a2.22,2.22,0,0,0,2.18,2.15,2.12,2.12,0,0,0,1.82-1,.26.26,0,0,1,.36-.09.29.29,0,0,1,.1.39,2.69,2.69,0,0,1-2.28,1.27A2.77,2.77,0,0,1,275.63,291.32Zm.59-.44h4.25a2.16,2.16,0,0,0-2.11-1.83A2.19,2.19,0,0,0,276.22,290.88Z" transform="translate(0 0)" style="fill: #0d344f"/>
      <path d="M282.78,288.79a.28.28,0,0,1,.29-.28.27.27,0,0,1,.26.28V290l.08-.14a2.71,2.71,0,0,1,2.25-1.38.28.28,0,1,1,0,.55A2.05,2.05,0,0,0,284,290a5,5,0,0,0-.67,1.31.15.15,0,0,0,0,.09v2.47a.26.26,0,0,1-.26.27.27.27,0,0,1-.29-.27Z" transform="translate(0 0)" style="fill: #0d344f"/>
      <path d="M290.86,291.3a2.83,2.83,0,0,1,2.89-2.8,2.88,2.88,0,0,1,1.79.62.26.26,0,0,1,0,.38.28.28,0,0,1-.37.05,2.29,2.29,0,1,0-1.45,4,2.39,2.39,0,0,0,1.45-.49.28.28,0,0,1,.37,0,.28.28,0,0,1-.05.41,2.94,2.94,0,0,1-1.77.59A2.83,2.83,0,0,1,290.86,291.3Z" transform="translate(0 0)" style="fill: #0d344f"/>
      <path d="M297.82,286.94a.28.28,0,0,1,.28-.27.27.27,0,0,1,.28.27v.27a.28.28,0,0,1-.28.29.29.29,0,0,1-.28-.29Zm0,1.84a.28.28,0,0,1,.28-.28.27.27,0,0,1,.28.28v5.07a.27.27,0,0,1-.28.27.28.28,0,0,1-.28-.27Z" transform="translate(0 0)" style="fill: #0d344f"/>
      <path d="M301,288.79a.27.27,0,0,1,.28-.28.28.28,0,0,1,.27.28V290a.5.5,0,0,1,.08-.14,2.7,2.7,0,0,1,2.24-1.38.28.28,0,1,1,0,.55,2,2,0,0,0-1.62.92,5.11,5.11,0,0,0-.68,1.31.2.2,0,0,0,0,.09v2.47a.27.27,0,0,1-.27.27.27.27,0,0,1-.28-.27Z" transform="translate(0 0)" style="fill: #0d344f"/>
      <path d="M305.38,291.3a2.83,2.83,0,0,1,2.89-2.8,2.88,2.88,0,0,1,1.79.62.26.26,0,0,1,0,.38.29.29,0,0,1-.38.05,2.27,2.27,0,0,0-1.45-.51,2.27,2.27,0,1,0,0,4.53,2.37,2.37,0,0,0,1.45-.49.29.29,0,0,1,.38,0,.28.28,0,0,1-.06.41,2.94,2.94,0,0,1-1.77.59A2.84,2.84,0,0,1,305.38,291.3Z" transform="translate(0 0)" style="fill: #0d344f"/>
      <path d="M312.22,288.77a.27.27,0,0,1,.28-.28.27.27,0,0,1,.27.28v3.06a1.74,1.74,0,1,0,3.47,0v-3.06a.28.28,0,1,1,.56,0v3.06a2.29,2.29,0,1,1-4.58,0Z" transform="translate(0 0)" style="fill: #0d344f"/>
      <path d="M319.38,286.94a.28.28,0,0,1,.28-.27.27.27,0,0,1,.28.27v.27a.28.28,0,0,1-.28.29.29.29,0,0,1-.28-.29Zm0,1.84a.28.28,0,0,1,.28-.28.27.27,0,0,1,.28.28v5.07a.27.27,0,0,1-.28.27.28.28,0,0,1-.28-.27Z" transform="translate(0 0)" style="fill: #0d344f"/>
      <path d="M324.55,288.78a.29.29,0,0,1-.27.27h-.72v4.1a.44.44,0,0,0,.41.41.32.32,0,0,1,.29.29.3.3,0,0,1-.29.27,1,1,0,0,1-1-1v-4.1h-.7c-.27,0-.27-.14-.27-.27s0-.28.27-.28h.7v-2.09a.3.3,0,0,1,.28-.27.31.31,0,0,1,.3.27v2.09h.72A.29.29,0,0,1,324.55,288.78Z" transform="translate(0 0)" style="fill: #0d344f"/>
      <path d="M267.1,309.89a1.19,1.19,0,0,1-1.18,1.15h-.52v5.84a1.17,1.17,0,0,1,0,2.33,2.33,2.33,0,0,1-2.32-2.33V311h-.61a1.16,1.16,0,0,1,0-2.31h.61v-3a1.15,1.15,0,0,1,1.17-1.15,1.13,1.13,0,0,1,1.15,1.15v3h.52A1.18,1.18,0,0,1,267.1,309.89Z" transform="translate(0 0)" style="fill: #fff"/>
      <path d="M275.75,309.84a1.13,1.13,0,0,1-1.11,1.12,2,2,0,0,0-1.26.39,3.09,3.09,0,0,0-1,1,6,6,0,0,0-.86,1.76v4a1.15,1.15,0,0,1-1.15,1.11,1.13,1.13,0,0,1-1.12-1.11v-8.26a1.1,1.1,0,0,1,1.12-1.08,1.12,1.12,0,0,1,1.15,1.08V310a2.49,2.49,0,0,1,.44-.42,4.52,4.52,0,0,1,2.64-.81A1.09,1.09,0,0,1,275.75,309.84Z" transform="translate(0 0)" style="fill: #fff"/>
      <path d="M276.71,314a5.19,5.19,0,0,1,5.11-5.24,5,5,0,0,1,5.05,4.86v.11a.65.65,0,0,1,0,.19,1,1,0,0,1-1.09.83H279.1a2.69,2.69,0,0,0,.71,1.39,3.24,3.24,0,0,0,2,.94,3.51,3.51,0,0,0,2.18-.52,1.18,1.18,0,0,1,1.57-.07,1,1,0,0,1,0,1.36,5.27,5.27,0,0,1-3.75,1.39A5.2,5.2,0,0,1,276.71,314Zm2.28-1h5.93a3.44,3.44,0,0,0-3.1-2.22A3,3,0,0,0,279,312.94Z" transform="translate(0 0)" style="fill: #fff"/>
      <path d="M289.46,314a5.19,5.19,0,0,1,5.11-5.24,5,5,0,0,1,5.05,4.86v.11a.65.65,0,0,1,0,.19,1,1,0,0,1-1.09.83h-6.66a2.85,2.85,0,0,0,.71,1.39,3.24,3.24,0,0,0,2,.94,3.48,3.48,0,0,0,2.18-.52,1.18,1.18,0,0,1,1.57-.07,1,1,0,0,1,0,1.36,5.25,5.25,0,0,1-3.75,1.39A5.2,5.2,0,0,1,289.46,314Zm2.29-1h5.92a3.43,3.43,0,0,0-3.1-2.22A2.92,2.92,0,0,0,291.75,312.94Z" transform="translate(0 0)" style="fill: #fff"/>
    </g>
  </g>
</svg>
