<svg xmlns="http://www.w3.org/2000/svg" viewBox="0 0 1200 1200">
  <title>Asset 3</title>
  <g id="Layer_2" data-name="Layer 2">
    <g id="background">
      <rect width="1200" height="1200" style="fill: #fff"/>
    </g>
    <g id="object">
      <g id="paths">
        <circle cx="420.07" cy="862.04" r="110.6" transform="translate(-486.52 549.52) rotate(-45)" style="fill: none;stroke: #1a1a1a;stroke-linecap: round;stroke-linejoin: round;stroke-width: 10.6858px;stroke-dasharray: 0,27.798099517822266"/>
        <circle cx="345.64" cy="472.41" r="110.6" transform="translate(-232.81 382.77) rotate(-45)" style="fill: none;stroke: #1a1a1a;stroke-linecap: round;stroke-linejoin: round;stroke-width: 10.6858px;stroke-dasharray: 0,27.798099517822266"/>
        <circle cx="605.24" cy="279.27" r="110.6" transform="translate(-20.2 509.77) rotate(-45)" style="fill: none;stroke: #1a1a1a;stroke-linecap: round;stroke-linejoin: round;stroke-width: 10.6858px;stroke-dasharray: 0,27.798099517822266"/>
        <g>
          <line x1="239.25" y1="1002.31" x2="748.81" y2="492.76" style="fill: none;stroke: #1a1a1a;stroke-miterlimit: 10;stroke-width: 10.6858px"/>
          <circle cx="239.25" cy="1002.31" r="34.5" style="fill: none;stroke: #1a1a1a;stroke-miterlimit: 10;stroke-width: 9.117px"/>
          <path d="M252.19,1015.24a18.29,18.29,0,1,1,0-25.86A18.28,18.28,0,0,1,252.19,1015.24Z" style="fill: #1a1a1a"/>
          <path d="M757.55,501.49a12.35,12.35,0,1,1,0-17.47A12.36,12.36,0,0,1,757.55,501.49Z" style="fill: #1a1a1a"/>
        </g>
        <g>
          <line x1="551.99" y1="1003.75" x2="1061.55" y2="494.19" style="fill: none;stroke: #1a1a1a;stroke-miterlimit: 10;stroke-width: 10.6858px"/>
          <circle cx="551.99" cy="1003.75" r="34.5" style="fill: none;stroke: #1a1a1a;stroke-miterlimit: 10;stroke-width: 9.117px"/>
          <path d="M564.92,1016.68a18.29,18.29,0,1,1,0-25.86A18.29,18.29,0,0,1,564.92,1016.68Z" style="fill: #1a1a1a"/>
          <circle cx="1061.55" cy="494.19" r="12.35" style="fill: #1a1a1a"/>
        </g>
        <g>
          <line x1="262.89" y1="859.99" x2="577.24" y2="545.64" style="fill: none;stroke: #1a1a1a;stroke-miterlimit: 10;stroke-width: 10.6858px"/>
          <circle cx="262.89" cy="860" r="27.22" style="fill: none;stroke: #1a1a1a;stroke-miterlimit: 10;stroke-width: 7.194640000000001px"/>
          <circle cx="262.89" cy="859.99" r="14.43" transform="translate(-452.38 314.94) rotate(-35.69)" style="fill: #1a1a1a"/>
          <circle cx="577.24" cy="545.64" r="12.35" transform="translate(-209.94 439.47) rotate(-35.71)" style="fill: #1a1a1a"/>
        </g>
        <g>
          <line x1="993.32" y1="411.23" x2="470.61" y2="933.93" style="fill: none;stroke: #1a1a1a;stroke-miterlimit: 10;stroke-width: 10.6858px"/>
          <circle cx="993.32" cy="411.23" r="34.5" transform="translate(16.81 860.91) rotate(-47.22)" style="fill: none;stroke: #1a1a1a;stroke-miterlimit: 10;stroke-width: 9.117px"/>
          <circle cx="993.32" cy="411.23" r="18.29" transform="translate(53.15 932.65) rotate(-51.5)" style="fill: #1a1a1a"/>
          <path d="M461.88,925.2a12.35,12.35,0,1,1,0,17.47A12.35,12.35,0,0,1,461.88,925.2Z" style="fill: #1a1a1a"/>
        </g>
        <g>
          <line x1="215.19" y1="752" x2="424.2" y2="542.99" style="fill: none;stroke: #1a1a1a;stroke-miterlimit: 10;stroke-width: 10.4658px"/>
          <circle cx="437.92" cy="529.26" r="21.19" transform="translate(-243.08 619.38) rotate(-57.93)" style="fill: none;stroke: #1a1a1a;stroke-miterlimit: 10;stroke-width: 5.600040000000001px"/>
          <circle cx="337.52" cy="629.66" r="31.66" transform="translate(-121.67 82.36) rotate(-11.8)" style="fill: none;stroke: #1a1a1a;stroke-miterlimit: 10;stroke-width: 7.042560000000001px"/>
          <circle cx="315.14" cy="652.05" r="23.88" transform="translate(-368.77 413.82) rotate(-45)" style="fill: #1a1a1a"/>
          <path d="M224,764.66a15.17,15.17,0,1,1,0-21.45A15.16,15.16,0,0,1,224,764.66Z" style="fill: #1a1a1a"/>
          <polygon points="166.86 800.33 184.94 747.09 203.03 693.84 238.19 729 273.34 764.15 220.1 782.24 166.86 800.33" style="fill: none;stroke: #1a1a1a;stroke-miterlimit: 10;stroke-width: 7.879910000000001px"/>
        </g>
        <g>
          <line x1="679.68" y1="481.27" x2="863.75" y2="297.2" style="fill: none;stroke: #1a1a1a;stroke-miterlimit: 10;stroke-width: 7.951270000000001px"/>
          <circle cx="679.68" cy="481.27" r="19.49" style="fill: none;stroke: #1a1a1a;stroke-miterlimit: 10;stroke-width: 5.149590000000001px"/>
          <circle cx="679.68" cy="481.27" r="10.33" style="fill: #1a1a1a"/>
          <polygon points="980.71 180.24 944.63 286.46 908.54 392.68 838.4 322.54 768.27 252.41 874.49 216.32 980.71 180.24" style="fill: none;stroke: #1a1a1a;stroke-miterlimit: 10;stroke-width: 7.951270000000001px"/>
          <polygon points="924.26 236.69 908.91 281.86 893.57 327.02 863.75 297.2 833.93 267.38 879.09 252.04 924.26 236.69" style="fill: none;stroke: #1a1a1a;stroke-miterlimit: 10;stroke-width: 7.06782px"/>
          <circle cx="738.47" cy="422.48" r="16.52" transform="translate(-49.88 742.36) rotate(-51.86)" style="fill: none;stroke: #1a1a1a;stroke-miterlimit: 10;stroke-width: 5.350490000000001px"/>
        </g>
        <g>
          <line x1="602.41" y1="810.47" x2="440.97" y2="971.91" style="fill: none;stroke: #1a1a1a;stroke-miterlimit: 10;stroke-width: 6.973420000000001px"/>
          <path d="M590.32,798.39a17.09,17.09,0,1,1,0,24.17A17.08,17.08,0,0,1,590.32,798.39Z" style="fill: none;stroke: #1a1a1a;stroke-miterlimit: 10;stroke-width: 4.516290000000001px"/>
          <path d="M596,804.07a9.06,9.06,0,1,1,0,12.81A9.05,9.05,0,0,1,596,804.07Z" style="fill: #1a1a1a"/>
          <polygon points="338.39 1074.49 370.04 981.33 401.69 888.17 463.2 949.68 524.71 1011.19 431.55 1042.84 338.39 1074.49" style="fill: none;stroke: #1a1a1a;stroke-miterlimit: 10;stroke-width: 6.973420000000001px"/>
          <polygon points="387.91 1024.97 401.36 985.36 414.82 945.75 440.97 971.91 467.13 998.06 427.52 1011.52 387.91 1024.97" style="fill: none;stroke: #1a1a1a;stroke-miterlimit: 10;stroke-width: 6.19859px"/>
          <circle cx="550.84" cy="862.04" r="14.48" style="fill: none;stroke: #1a1a1a;stroke-miterlimit: 10;stroke-width: 4.69249px"/>
        </g>
        <g>
          <polygon points="1013.78 644.33 995.11 699.29 976.43 754.25 940.15 717.96 903.86 681.68 958.82 663 1013.78 644.33" style="fill: none;stroke: #1a1a1a;stroke-miterlimit: 10;stroke-width: 6.371770000000001px"/>
          <polygon points="984.57 673.54 976.63 696.91 968.69 720.28 953.26 704.85 937.83 689.42 961.2 681.48 984.57 673.54" style="fill: none;stroke: #1a1a1a;stroke-miterlimit: 10;stroke-width: 6.371770000000001px"/>
        </g>
        <g>
          <polygon points="641.45 201.71 622.78 256.67 604.11 311.63 567.82 275.34 531.53 239.05 586.49 220.38 641.45 201.71" style="fill: none;stroke: #1a1a1a;stroke-miterlimit: 10;stroke-width: 6.371770000000001px"/>
          <polygon points="612.24 230.92 604.3 254.28 596.36 277.65 580.93 262.22 565.5 246.79 588.87 238.85 612.24 230.92" style="fill: none;stroke: #1a1a1a;stroke-miterlimit: 10;stroke-width: 6.371770000000001px"/>
        </g>
        <g>
          <polygon points="590.69 782.65 572.02 837.61 553.35 892.57 517.06 856.28 480.77 819.99 535.73 801.32 590.69 782.65" style="fill: none;stroke: #1a1a1a;stroke-miterlimit: 10;stroke-width: 6.371770000000001px"/>
          <polygon points="561.48 811.86 553.54 835.23 545.6 858.6 530.17 843.16 514.74 827.74 538.11 819.8 561.48 811.86" style="fill: none;stroke: #1a1a1a;stroke-miterlimit: 10;stroke-width: 6.371770000000001px"/>
        </g>
        <g>
          <g>
            <polyline points="683.98 964.75 678.67 966.17 680.09 960.86" style="fill: none;stroke: #1a1a1a;stroke-miterlimit: 10;stroke-width: 6.58107px"/>
            <polyline points="684.38 944.85 707.6 858.19 732.97 763.53" style="fill: none;stroke: #1a1a1a;stroke-miterlimit: 10;stroke-width: 6.58107px;stroke-dasharray: 11.415900230407715,16.583999633789062"/>
            <polyline points="735.11 755.52 736.53 750.22 740.42 754.1" style="fill: none;stroke: #1a1a1a;stroke-miterlimit: 10;stroke-width: 6.58107px"/>
            <polyline points="752.15 765.83 815.58 829.26 884.88 898.56" style="fill: none;stroke: #1a1a1a;stroke-miterlimit: 10;stroke-width: 6.58107px;stroke-dasharray: 11.415900230407715,16.583999633789062"/>
            <polyline points="890.74 904.42 894.63 908.31 889.32 909.73" style="fill: none;stroke: #1a1a1a;stroke-miterlimit: 10;stroke-width: 6.58107px"/>
            <polyline points="873.3 914.02 786.65 937.24 691.99 962.6" style="fill: none;stroke: #1a1a1a;stroke-miterlimit: 10;stroke-width: 6.58107px;stroke-dasharray: 11.415900230407715,16.583999633789062"/>
          </g>
          <g>
            <polyline points="726.51 922.21 721.21 923.64 722.63 918.33" style="fill: none;stroke: #1a1a1a;stroke-miterlimit: 10;stroke-width: 6.58107px"/>
            <polyline points="727.21 901.24 736.51 866.52 748.1 823.26" style="fill: none;stroke: #1a1a1a;stroke-miterlimit: 10;stroke-width: 6.58107px;stroke-dasharray: 12.174599647521973,17.686199188232422"/>
            <polyline points="750.39 814.71 751.82 809.41 755.7 813.29" style="fill: none;stroke: #1a1a1a;stroke-miterlimit: 10;stroke-width: 6.58107px"/>
            <polyline points="768.21 825.8 793.63 851.22 825.3 882.89" style="fill: none;stroke: #1a1a1a;stroke-miterlimit: 10;stroke-width: 6.58107px;stroke-dasharray: 12.174599647521973,17.686199188232422"/>
            <polyline points="831.55 889.14 835.44 893.03 830.13 894.45" style="fill: none;stroke: #1a1a1a;stroke-miterlimit: 10;stroke-width: 6.58107px"/>
            <polyline points="813.04 899.03 778.32 908.33 735.06 919.92" style="fill: none;stroke: #1a1a1a;stroke-miterlimit: 10;stroke-width: 6.58107px;stroke-dasharray: 12.174599647521973,17.686199188232422"/>
          </g>
        </g>
        <g>
          <g>
            <polyline points="989.53 330.92 994.84 329.5 993.42 334.81" style="fill: none;stroke: #1a1a1a;stroke-miterlimit: 10;stroke-width: 6.58107px"/>
            <polyline points="989.13 350.82 965.91 437.48 940.55 532.13" style="fill: none;stroke: #1a1a1a;stroke-miterlimit: 10;stroke-width: 6.58107px;stroke-dasharray: 11.415900230407715,16.583999633789062"/>
            <polyline points="938.4 540.14 936.98 545.45 933.09 541.57" style="fill: none;stroke: #1a1a1a;stroke-miterlimit: 10;stroke-width: 6.58107px"/>
            <polyline points="921.37 529.84 857.93 466.41 788.64 397.11" style="fill: none;stroke: #1a1a1a;stroke-miterlimit: 10;stroke-width: 6.58107px;stroke-dasharray: 11.415900230407715,16.583999633789062"/>
            <polyline points="782.77 391.25 778.89 387.36 784.2 385.94" style="fill: none;stroke: #1a1a1a;stroke-miterlimit: 10;stroke-width: 6.58107px"/>
            <polyline points="800.21 381.65 886.87 358.43 981.52 333.06" style="fill: none;stroke: #1a1a1a;stroke-miterlimit: 10;stroke-width: 6.58107px;stroke-dasharray: 11.415900230407715,16.583999633789062"/>
          </g>
          <g>
            <polyline points="947 373.46 952.31 372.03 950.88 377.34" style="fill: none;stroke: #1a1a1a;stroke-miterlimit: 10;stroke-width: 6.58107px"/>
            <polyline points="946.31 394.43 937 429.15 925.41 472.41" style="fill: none;stroke: #1a1a1a;stroke-miterlimit: 10;stroke-width: 6.58107px;stroke-dasharray: 12.174599647521973,17.686199188232422"/>
            <polyline points="923.12 480.95 921.7 486.26 917.81 482.38" style="fill: none;stroke: #1a1a1a;stroke-miterlimit: 10;stroke-width: 6.58107px"/>
            <polyline points="905.31 469.87 879.89 444.45 848.22 412.78" style="fill: none;stroke: #1a1a1a;stroke-miterlimit: 10;stroke-width: 6.58107px;stroke-dasharray: 12.174599647521973,17.686199188232422"/>
            <polyline points="841.96 406.53 838.08 402.64 843.38 401.22" style="fill: none;stroke: #1a1a1a;stroke-miterlimit: 10;stroke-width: 6.58107px"/>
            <polyline points="860.47 396.64 895.19 387.34 938.46 375.74" style="fill: none;stroke: #1a1a1a;stroke-miterlimit: 10;stroke-width: 6.58107px;stroke-dasharray: 12.174599647521973,17.686199188232422"/>
          </g>
        </g>
        <g>
          <g>
            <line x1="223.28" y1="600" x2="548.33" y2="274.95" style="fill: none;stroke: #1a1a1a;stroke-miterlimit: 10;stroke-width: 6.81655px"/>
            <circle cx="223.28" cy="600" r="22.01" transform="translate(-358.87 333.62) rotate(-45)" style="fill: none;stroke: #1a1a1a;stroke-miterlimit: 10;stroke-width: 5.81578px"/>
            <circle cx="223.28" cy="600" r="11.66" style="fill: #1a1a1a"/>
            <path d="M553.9,280.52a7.88,7.88,0,1,1,0-11.14A7.87,7.87,0,0,1,553.9,280.52Z" style="fill: #1a1a1a"/>
          </g>
          <circle cx="357.66" cy="465.62" r="21.86" style="fill: none;stroke: #1a1a1a;stroke-miterlimit: 10;stroke-width: 4.692340000000001px"/>
        </g>
        <g>
          <g>
            <line x1="758.76" y1="183.2" x2="433.71" y2="508.25" style="fill: none;stroke: #1a1a1a;stroke-miterlimit: 10;stroke-width: 6.81655px"/>
            <path d="M743.2,167.63a22,22,0,1,1,0,31.13A22,22,0,0,1,743.2,167.63Z" style="fill: none;stroke: #1a1a1a;stroke-miterlimit: 10;stroke-width: 5.81578px"/>
            <path d="M750.51,175a11.66,11.66,0,1,1,0,16.49A11.66,11.66,0,0,1,750.51,175Z" style="fill: #1a1a1a"/>
            <path d="M428.14,502.68a7.88,7.88,0,1,1,0,11.14A7.87,7.87,0,0,1,428.14,502.68Z" style="fill: #1a1a1a"/>
          </g>
          <circle cx="631.91" cy="310.05" r="26.67" style="fill: none;stroke: #1a1a1a;stroke-miterlimit: 10;stroke-width: 5.72487px"/>
        </g>
      </g>
    </g>
  </g>
</svg>
