<svg xmlns="http://www.w3.org/2000/svg" viewBox="0 0 67.59 158.32">
  <title>Asset 2</title>
  <g id="Layer_2" data-name="Layer 2">
    <g id="Layer_2-2" data-name="Layer 2">
      <rect x="16.97" width="1.27" height="158.31" style="fill: #fff"/>
      <rect x="48.22" y="17.46" width="1.26" height="140.85" style="fill: #fff"/>
      <rect x="50.93" y="22.08" width="1.27" height="136.24" style="fill: #fff"/>
      <rect x="45.72" y="17.46" width="1.27" height="72.73" style="fill: #fff"/>
      <rect x="21.04" y="47.5" width="1.27" height="20.21" style="fill: #fff"/>
      <polygon points="7.59 110.91 2.14 105.48 3.03 104.58 8.49 110.02 7.59 110.91" style="fill: #fff"/>
      <rect x="24.79" y="65.63" width="1.27" height="11.12" transform="translate(-42.9 38.83) rotate(-45)" style="fill: #fff"/>
      <rect x="20.3" y="44.43" width="8.16" height="1.27" transform="translate(-24.72 30.41) rotate(-44.97)" style="fill: #fff"/>
      <rect x="24.38" y="49.04" width="1.27" height="15.61" style="fill: #fff"/>
      <rect x="29.78" y="32.51" width="1.27" height="11.66" style="fill: #fff"/>
      <rect x="23.63" y="45.97" width="8.16" height="1.27" transform="translate(-24.83 33.22) rotate(-44.97)" style="fill: #fff"/>
      <rect x="53.63" y="25.78" width="1.26" height="104.14" style="fill: #fff"/>
      <rect x="23.99" y="60.69" width="8.16" height="1.27" transform="translate(-35.13 37.77) rotate(-44.96)" style="fill: #fff"/>
      <rect x="22.37" y="104.78" width="8.16" height="1.27" transform="translate(-66.75 49.51) rotate(-44.96)" style="fill: #fff"/>
      <rect x="39.57" y="92" width="8.16" height="1.27" transform="translate(-52.69 57.93) rotate(-44.96)" style="fill: #fff"/>
      <rect x="60.18" y="114.66" width="8.16" height="1.27" transform="translate(-62.68 79.13) rotate(-44.97)" style="fill: #fff"/>
      <rect x="23.11" y="69.32" width="1.27" height="44.49" style="fill: #fff"/>
      <rect x="60.93" y="117.73" width="1.26" height="40.59" style="fill: #fff"/>
      <rect x="58.71" y="134.48" width="1.27" height="23.84" style="fill: #fff"/>
      <rect x="28.2" y="118.35" width="1.27" height="39.96" style="fill: #fff"/>
      <rect x="7.22" y="50.29" width="1.27" height="108.02" style="fill: #fff"/>
      <rect x="40.32" y="95.07" width="1.27" height="63.25" style="fill: #fff"/>
      <polygon points="35.03 29.44 29.58 24.01 30.47 23.11 35.93 28.55 35.03 29.44" style="fill: #fff"/>
      <rect x="34.66" y="28.55" width="1.27" height="129.77" style="fill: #fff"/>
      <polygon points="66.7 60.68 61.24 55.25 62.14 54.35 67.59 59.79 66.7 60.68" style="fill: #fff"/>
      <polygon points="59.08 135.37 53.63 129.94 54.52 129.04 59.98 134.47 59.08 135.37" style="fill: #fff"/>
      <polygon points="28.57 119.25 23.11 113.82 24.01 112.92 29.46 118.35 28.57 119.25" style="fill: #fff"/>
      <rect x="66.33" y="59.79" width="1.26" height="53.07" style="fill: #fff"/>
      <rect x="61.24" y="55.25" width="1.27" height="18.46" style="fill: #fff"/>
    </g>
    <g id="Layer_3" data-name="Layer 3">
      <path d="M32.12,23.76a1.93,1.93,0,1,1-2-1.81A1.93,1.93,0,0,1,32.12,23.76Z" style="fill: #fff"/>
      <path d="M30.72,103.07a1.93,1.93,0,1,1-2-1.81A1.93,1.93,0,0,1,30.72,103.07Z" style="fill: #fff"/>
      <path d="M32.34,32.4a1.93,1.93,0,0,1-3.86.23,1.93,1.93,0,1,1,3.86-.23Z" style="fill: #fff"/>
      <path d="M32.09,75.92A1.93,1.93,0,1,1,30.16,74,1.92,1.92,0,0,1,32.09,75.92Z" style="fill: #fff"/>
      <path d="M61.88,78.13a2.5,2.5,0,1,1,2.49-2.49A2.5,2.5,0,0,1,61.88,78.13Z" style="fill: #fff"/>
      <path d="M1.37,102.26a1.38,1.38,0,1,0,1.38,1.37A1.38,1.38,0,0,0,1.37,102.26Z" style="fill: #fff"/>
    </g>
  </g>
</svg>
